<?xml version="1.0" encoding="UTF-8" standalone="no"?>
<!-- Generator: Adobe Illustrator 16.0.0, SVG Export Plug-In . SVG Version: 6.00 Build 0)  -->

<svg
   xmlns:dc="http://purl.org/dc/elements/1.1/"
   xmlns:cc="http://creativecommons.org/ns#"
   xmlns:rdf="http://www.w3.org/1999/02/22-rdf-syntax-ns#"
   xmlns:svg="http://www.w3.org/2000/svg"
   xmlns="http://www.w3.org/2000/svg"
   xmlns:sodipodi="http://sodipodi.sourceforge.net/DTD/sodipodi-0.dtd"
   xmlns:inkscape="http://www.inkscape.org/namespaces/inkscape"
   version="1.1"
   id="Layer_1"
   x="0px"
   y="0px"
   width="210mm"
   height="297mm"
   viewBox="0 0 793.70075 1122.5197"
   enable-background="new 0 0 595.28 841.89"
   xml:space="preserve"
   sodipodi:docname="figure_8_summary.svg"
   inkscape:version="0.92.0 r15299"><metadata
     id="metadata363"><rdf:RDF><cc:Work
         rdf:about=""><dc:format>image/svg+xml</dc:format><dc:type
           rdf:resource="http://purl.org/dc/dcmitype/StillImage" /><dc:title></dc:title></cc:Work></rdf:RDF></metadata><defs
     id="defs361" /><sodipodi:namedview
     pagecolor="#ffffff"
     bordercolor="#666666"
     borderopacity="1"
     objecttolerance="10"
     gridtolerance="10"
     guidetolerance="10"
     inkscape:pageopacity="0"
     inkscape:pageshadow="2"
     inkscape:window-width="1858"
     inkscape:window-height="1057"
     id="namedview359"
     showgrid="false"
     inkscape:zoom="1.7354414"
     inkscape:cx="348.97303"
     inkscape:cy="898.6961"
     inkscape:window-x="54"
     inkscape:window-y="-8"
     inkscape:window-maximized="1"
     inkscape:current-layer="Layer_1"
     units="mm" /><g
     id="g5024"
     transform="matrix(1.6803008,0,0,1.6803008,-101.82405,-13.212065)"><text
       id="text6"
       transform="translate(362.041,106.6553)"><tspan
         id="tspan2"
         font-size="9.8"
         y="0"
         x="0"
         style="font-size:9.80000019px;font-family:Helvetica-Bold">Plant parasitic</tspan><tspan
         id="tspan4"
         font-size="9.8"
         y="11.76"
         x="0"
         style="font-size:9.80000019px;font-family:Helvetica-Bold">oomycetes</tspan></text>
<line
       id="line8"
       y2="139.14101"
       x2="357.854"
       y1="139.14101"
       x1="320.758"
       stroke-miterlimit="10"
       style="fill:none;stroke:#000000;stroke-width:2;stroke-miterlimit:10" /><line
       id="line10"
       y2="109.519"
       x2="357.854"
       y1="109.519"
       x1="320.758"
       stroke-miterlimit="10"
       style="fill:none;stroke:#000000;stroke-width:2;stroke-miterlimit:10" /><line
       style="fill:none;stroke:#000000;stroke-width:2;stroke-linecap:square;stroke-miterlimit:10"
       id="line12"
       y2="109.519"
       x2="320.758"
       y1="139.14101"
       x1="320.758"
       stroke-miterlimit="10" /><line
       id="line14"
       y2="124.68"
       x2="320.758"
       y1="124.68"
       x1="283.664"
       stroke-miterlimit="10"
       style="fill:none;stroke:#000000;stroke-width:2;stroke-miterlimit:10" /><line
       id="line16"
       y2="169.002"
       x2="357.854"
       y1="169.002"
       x1="283.664"
       stroke-miterlimit="10"
       style="fill:none;stroke:#000000;stroke-width:2;stroke-miterlimit:10" /><line
       style="fill:none;stroke:#000000;stroke-width:2;stroke-linecap:square;stroke-miterlimit:10"
       id="line18"
       y2="124.68"
       x2="283.664"
       y1="169.002"
       x1="283.664"
       stroke-miterlimit="10" /><text
       id="text20"
       font-size="9.8"
       transform="translate(362.041,141.6123)"
       style="font-size:9.80000019px;font-family:Helvetica-BoldOblique"><tspan
         id="tspan4842"
         style="font-style:italic">Saprolegnia parasitica</tspan></text>
<text
       id="text22"
       font-size="9.8"
       transform="translate(362.041,171.9814)"
       style="font-size:9.80000019px;font-family:Helvetica-BoldOblique"><tspan
         id="tspan4840"
         style="font-style:italic">Hyphochytrium catenoides </tspan></text>
<line
       id="line24"
       y2="147.42999"
       x2="283.664"
       y1="147.42999"
       x1="246.567"
       stroke-miterlimit="10"
       style="fill:none;stroke:#000000;stroke-width:2;stroke-miterlimit:10" /><line
       id="line26"
       y2="191.752"
       x2="357.854"
       y1="191.752"
       x1="246.567"
       stroke-miterlimit="10"
       style="fill:none;stroke:#000000;stroke-width:2;stroke-miterlimit:10" /><line
       style="fill:none;stroke:#000000;stroke-width:2;stroke-linecap:square;stroke-miterlimit:10"
       id="line28"
       y2="147.42999"
       x2="246.567"
       y1="191.752"
       x1="246.567"
       stroke-miterlimit="10" /><polygon
       id="polygon30"
       points="357.854,178.158 357.854,205.348 339.853,191.754 "
       stroke-miterlimit="10"
       style="fill:#ffffff;stroke:#000000;stroke-width:2;stroke-miterlimit:10" /><line
       id="line32"
       y2="169.83"
       x2="246.563"
       y1="169.83"
       x1="209.467"
       stroke-miterlimit="10"
       style="fill:none;stroke:#000000;stroke-width:2;stroke-miterlimit:10" /><line
       id="line34"
       y2="223.953"
       x2="343.168"
       y1="223.953"
       x1="209.467"
       stroke-miterlimit="10"
       style="fill:none;stroke:#000000;stroke-width:2;stroke-miterlimit:10" /><line
       style="fill:none;stroke:#000000;stroke-width:2;stroke-linecap:square;stroke-miterlimit:10"
       id="line36"
       y2="169.83"
       x2="209.467"
       y1="223.953"
       x1="209.467"
       stroke-miterlimit="10" /><polygon
       id="polygon38"
       points="358.057,210.096 358.057,237.285 340.056,223.691 "
       stroke-miterlimit="10"
       style="fill:#ffffff;stroke:#000000;stroke-width:2;stroke-miterlimit:10" /><text
       id="text40"
       font-size="9.8"
       transform="translate(362.041,194.8232)"
       style="font-size:9.80000019px;font-family:Helvetica-Bold">Ochrophyta</text>
<text
       id="text42"
       font-size="9.8"
       transform="translate(363.8184,226.6738)"
       style="font-size:9.80000019px;font-family:Helvetica-Bold">Sagenista / Opalozoa</text>
<g
       id="g52"><g
         id="g50"><line
           id="line44"
           y2="196.89101"
           x2="166.37199"
           y1="196.89101"
           x1="165.37199"
           stroke-miterlimit="10"
           style="fill:none;stroke:#000000;stroke-width:2;stroke-miterlimit:10" /><line
           id="line46"
           y2="196.89101"
           x2="207.465"
           y1="196.89101"
           x1="168.37601"
           stroke-miterlimit="10"
           style="fill:none;stroke:#000000;stroke-width:2;stroke-miterlimit:10;stroke-dasharray:2.0046, 2.0046" /><line
           id="line48"
           y2="196.89101"
           x2="209.467"
           y1="196.89101"
           x1="208.467"
           stroke-miterlimit="10"
           style="fill:none;stroke:#000000;stroke-width:2;stroke-miterlimit:10" /></g></g><g
       id="g62"><g
         id="g60"><line
           id="line54"
           y2="276.37299"
           x2="165.37199"
           y1="277.37299"
           x1="165.37199"
           stroke-miterlimit="10"
           style="fill:none;stroke:#000000;stroke-width:2;stroke-miterlimit:10" /><line
           id="line56"
           y2="198.899"
           x2="165.37199"
           y1="274.36099"
           x1="165.37199"
           stroke-miterlimit="10"
           style="fill:none;stroke:#000000;stroke-width:2;stroke-miterlimit:10;stroke-dasharray:2.0123, 2.0123" /><line
           id="line58"
           y2="196.89301"
           x2="165.37199"
           y1="197.89301"
           x1="165.37199"
           stroke-miterlimit="10"
           style="fill:none;stroke:#000000;stroke-width:2;stroke-miterlimit:10" /></g></g><g
       id="g72"><g
         id="g70"><line
           id="line64"
           y2="277.37299"
           x2="166.37199"
           y1="277.37299"
           x1="165.37199"
           stroke-miterlimit="10"
           style="fill:none;stroke:#000000;stroke-width:2;stroke-miterlimit:10" /><line
           id="line66"
           y2="277.37299"
           x2="318.76199"
           y1="277.37299"
           x1="168.364"
           stroke-miterlimit="10"
           style="fill:none;stroke:#000000;stroke-width:2;stroke-miterlimit:10;stroke-dasharray:1.992, 1.992" /><line
           id="line68"
           y2="277.37299"
           x2="320.758"
           y1="277.37299"
           x1="319.758"
           stroke-miterlimit="10"
           style="fill:none;stroke:#000000;stroke-width:2;stroke-miterlimit:10" /></g></g><text
       id="text74"
       font-size="9.8"
       transform="translate(363.8184,264.4551)"
       style="font-size:9.80000019px;font-family:Helvetica-Bold">Fungi</text>
<polygon
       id="polygon76"
       points="358.057,279.874 358.057,307.062 340.056,293.469 "
       stroke-miterlimit="10"
       style="fill:#ffffff;stroke:#000000;stroke-width:2;stroke-miterlimit:10" /><line
       id="line78"
       y2="293.69901"
       x2="340.259"
       y1="293.69901"
       x1="320.961"
       stroke-miterlimit="10"
       style="fill:none;stroke:#000000;stroke-width:2;stroke-miterlimit:10" /><line
       id="line80"
       y2="260.57599"
       x2="358.05701"
       y1="260.57599"
       x1="320.961"
       stroke-miterlimit="10"
       style="fill:none;stroke:#000000;stroke-width:2;stroke-miterlimit:10" /><line
       style="fill:none;stroke:#000000;stroke-width:2;stroke-linecap:square;stroke-miterlimit:10"
       id="line82"
       y2="260.57599"
       x2="320.961"
       y1="293.69901"
       x1="320.961"
       stroke-miterlimit="10" /><polygon
       id="polygon84"
       points="357.854,247.297 357.854,274.486 339.853,260.891 "
       stroke-miterlimit="10"
       style="fill:#ffffff;stroke:#000000;stroke-width:2;stroke-miterlimit:10" /><text
       id="text86"
       font-size="9.8"
       transform="translate(363.8184,296.5)"
       style="font-size:9.80000019px;font-family:Helvetica-Bold">Metazoa</text>
<line
       id="line88"
       y2="196.89101"
       x2="209.467"
       y1="196.89101"
       x1="190.91901"
       stroke-miterlimit="10"
       style="fill:none;stroke:#000000;stroke-width:2;stroke-miterlimit:10" /><line
       id="line90"
       y2="277.37299"
       x2="320.759"
       y1="277.37299"
       x1="302.211"
       stroke-miterlimit="10"
       style="fill:none;stroke:#000000;stroke-width:2;stroke-miterlimit:10" /><line
       id="line92"
       y2="143.05099"
       x2="277.71701"
       y1="143.05099"
       x1="267.33301"
       stroke-miterlimit="10"
       style="fill:none;stroke:#f15a29;stroke-width:4;stroke-miterlimit:10" /><line
       style="fill:none;stroke:#f15a29;stroke-width:4;stroke-linecap:square;stroke-miterlimit:10"
       id="line94"
       y2="128.584"
       x2="277.71701"
       y1="164.98399"
       x1="277.71701"
       stroke-miterlimit="10" /><line
       id="line96"
       y2="128.584"
       x2="314.89099"
       y1="128.584"
       x1="277.71701"
       stroke-miterlimit="10"
       style="fill:none;stroke:#f15a29;stroke-width:4;stroke-miterlimit:10" /><line
       id="line98"
       y2="113.651"
       x2="348.854"
       y1="113.651"
       x1="314.69101"
       stroke-miterlimit="10"
       style="fill:none;stroke:#f15a29;stroke-width:4;stroke-miterlimit:10" /><line
       style="fill:none;stroke:#f15a29;stroke-width:4;stroke-linecap:square;stroke-miterlimit:10"
       id="line100"
       y2="113.651"
       x2="314.89099"
       y1="128.584"
       x1="314.89099"
       stroke-miterlimit="10" /><polygon
       id="polygon102"
       points="357.854,95.916 357.854,123.105 339.853,109.511 "
       stroke-miterlimit="10"
       style="fill:#ffffff;stroke:#000000;stroke-width:2;stroke-miterlimit:10" /><line
       id="line104"
       y2="164.98399"
       x2="358.05701"
       y1="164.98399"
       x1="277.71701"
       stroke-miterlimit="10"
       style="fill:none;stroke:#f15a29;stroke-width:4;stroke-miterlimit:10" /><ellipse
       id="ellipse106"
       ry="2.0179999"
       rx="2.45"
       cy="109.511"
       cx="324.57501" /><ellipse
       id="ellipse108"
       ry="2.0179999"
       rx="2.45"
       cy="109.519"
       cx="330.72198" /><text
       style="font-size:7px;font-family:Helvetica"
       id="text110"
       font-size="7"
       transform="translate(248.3916,96.998)">RXLR expansion</text>
<line
       id="line112"
       y2="109.511"
       x2="324.57401"
       y1="95.916"
       x1="304.15601"
       stroke-miterlimit="10"
       style="fill:none;stroke:#000000;stroke-width:0.5;stroke-miterlimit:10" /><line
       id="line114"
       y2="107.497"
       x2="329.99799"
       y1="79.405998"
       x1="306.72501"
       stroke-miterlimit="10"
       style="fill:none;stroke:#000000;stroke-width:0.5;stroke-miterlimit:10" /><text
       style="font-size:7px;font-family:Helvetica"
       id="text116"
       font-size="7"
       transform="translate(248.3916,80.9839)">Sterol Auxotrophy</text>
<text
       id="text122"
       transform="translate(147.625,112.8809)"><tspan
         style="font-size:7px;font-family:Helvetica"
         id="tspan118"
         font-size="7"
         y="0"
         x="0">Enzyme-transporter</tspan><tspan
         style="font-size:7px;font-family:Helvetica"
         id="tspan120"
         font-size="7"
         y="8.3990002"
         x="0">gene fusion</tspan></text>
<ellipse
       id="ellipse124"
       ry="2.0179999"
       rx="2.45"
       cy="143.186"
       cx="271.56699" /><line
       id="line126"
       y2="143.186"
       x2="271.56699"
       y1="66.050003"
       x1="218.056"
       stroke-miterlimit="10"
       style="fill:none;stroke:#000000;stroke-width:0.5;stroke-miterlimit:10" /><g
       id="g132"><ellipse
         id="ellipse128"
         ry="2.223"
         rx="3.016"
         cy="147.01601"
         cx="265.375" /><line
         id="line130"
         y2="147.01601"
         x2="265.375"
         y1="83.156998"
         x1="210.467"
         stroke-miterlimit="10"
         style="fill:none;stroke:#000000;stroke-width:0.5;stroke-miterlimit:10" /></g><ellipse
       id="ellipse134"
       ry="2.0179999"
       rx="2.45"
       cy="109.519"
       cx="337.022" /><line
       id="line136"
       y2="107.497"
       x2="336.29901"
       y1="58.816002"
       x1="322.125"
       stroke-miterlimit="10"
       style="fill:none;stroke:#000000;stroke-width:0.5;stroke-miterlimit:10" /><text
       id="text144"
       transform="translate(147.625,48.667)"><tspan
         style="font-size:7px;font-family:Helvetica"
         id="tspan138"
         font-size="7"
         y="0"
         x="0">Evidence of viral</tspan><tspan
         style="font-size:7px;font-family:Helvetica"
         id="tspan140"
         font-size="7"
         y="8.3999996"
         x="0">co-evolution / mosaic</tspan><tspan
         style="font-size:7px;font-family:Helvetica"
         id="tspan142"
         font-size="7"
         y="16.799999"
         x="0">of viral integration</tspan></text>
<text
       id="text152"
       transform="translate(147.625,77.1978)"><tspan
         style="font-size:7px;font-family:Helvetica"
         id="tspan146"
         font-size="7"
         y="0"
         x="0">Expansion of Kinesin </tspan><tspan
         style="font-size:7px;font-family:Helvetica"
         id="tspan148"
         font-size="7"
         y="8.3999996"
         x="0">14, 20 and Myosin </tspan><tspan
         style="font-size:7px;font-family:Helvetica"
         id="tspan150"
         font-size="7"
         y="16.799999"
         x="0">XXX, XXI</tspan></text>
<text
       id="text160"
       transform="translate(248.3916,48.667)"><tspan
         style="font-size:7px;font-family:Helvetica"
         id="tspan154"
         font-size="7"
         y="0"
         x="0">Expansion of sugar utilisation </tspan><tspan
         style="font-size:7px;font-family:Helvetica"
         id="tspan156"
         font-size="7"
         y="8.3999996"
         x="0">including plant cell wall </tspan><tspan
         style="font-size:7px;font-family:Helvetica"
         id="tspan158"
         font-size="7"
         y="16.799999"
         x="0">degradation enzymes</tspan></text>
<g
       id="g170"><g
         id="g168"><line
           id="line162"
           y2="237.85001"
           x2="107.756"
           y1="237.85001"
           x1="106.756"
           stroke-miterlimit="10"
           style="fill:none;stroke:#000000;stroke-width:2;stroke-miterlimit:10" /><line
           id="line164"
           y2="237.85001"
           x2="164.07899"
           y1="237.85001"
           x1="109.732"
           stroke-miterlimit="10"
           style="fill:none;stroke:#000000;stroke-width:2;stroke-miterlimit:10;stroke-dasharray:1.9762, 1.9762" /><line
           id="line166"
           y2="237.85001"
           x2="166.067"
           y1="237.85001"
           x1="165.067"
           stroke-miterlimit="10"
           style="fill:none;stroke:#000000;stroke-width:2;stroke-miterlimit:10" /></g></g><g
       id="g238"><path
         id="path172"
         d="m 321.721,170.063 c 0,4.6 -3.727,8.326 -8.325,8.326 v 0 c -4.598,0 -8.323,-3.727 -8.323,-8.326 v -10.566 c 0,-4.596 3.726,-8.324 8.323,-8.324 v 0 c 4.599,0 8.325,3.729 8.325,8.324 z"
         stroke-miterlimit="10"
         inkscape:connector-curvature="0"
         style="fill:#ffffff;stroke:#1d1d1b;stroke-width:0.5;stroke-miterlimit:10" /><ellipse
         id="ellipse174"
         ry="4.7849998"
         rx="4.6789999"
         cy="169.565"
         cx="313.396"
         style="fill:#717070" /><ellipse
         id="ellipse176"
         ry="2.256"
         rx="3.744"
         cy="161.403"
         cx="312.23801"
         style="fill:#030303" /><text
         id="text178"
         font-size="4.2525"
         transform="translate(312.2373,170.6265)"
         style="font-size:4.25250006px;font-family:Helvetica-Bold;fill:#010101">n</text>
<text
         id="text180"
         font-size="4.2525"
         transform="translate(310.3477,162.5474)"
         style="font-size:4.25250006px;font-family:Helvetica-Bold;fill:#ffffff">m</text>
<path
         id="path182"
         d="m 314.227,151.05 c 5.301,-4.437 16.182,-0.147 24.33,9.585"
         stroke-miterlimit="10"
         inkscape:connector-curvature="0"
         style="fill:none;stroke:#1d1d1b;stroke-width:0.5;stroke-linecap:round;stroke-miterlimit:10" /><g
         id="g188"><path
           id="path184"
           d="m 317.797,149.765 c 0.041,1.833 0.659,3.304 1.373,3.285"
           stroke-miterlimit="10"
           inkscape:connector-curvature="0"
           style="fill:none;stroke:#1d1d1b;stroke-width:0.25;stroke-linecap:round;stroke-miterlimit:10" /><path
           id="path186"
           d="m 317.789,149.535 c -0.043,-1.832 0.501,-3.333 1.217,-3.346"
           stroke-miterlimit="10"
           inkscape:connector-curvature="0"
           style="fill:none;stroke:#1d1d1b;stroke-width:0.25;stroke-linecap:round;stroke-miterlimit:10" /></g><g
         id="g194"><path
           id="path190"
           d="m 320.209,148.792 c 0.133,-1.828 0.815,-3.268 1.533,-3.218"
           stroke-miterlimit="10"
           inkscape:connector-curvature="0"
           style="fill:none;stroke:#1d1d1b;stroke-width:0.25;stroke-linecap:round;stroke-miterlimit:10" /><path
           id="path192"
           d="m 320.149,149.635 c -0.13,1.828 0.343,3.347 1.062,3.4"
           stroke-miterlimit="10"
           inkscape:connector-curvature="0"
           style="fill:none;stroke:#1d1d1b;stroke-width:0.25;stroke-linecap:round;stroke-miterlimit:10" /></g><g
         id="g200"><path
           id="path196"
           d="m 322.623,149.443 c 0.221,-1.819 0.977,-3.222 1.693,-3.134"
           stroke-miterlimit="10"
           inkscape:connector-curvature="0"
           style="fill:none;stroke:#1d1d1b;stroke-width:0.25;stroke-linecap:round;stroke-miterlimit:10" /><path
           id="path198"
           d="m 322.52,150.279 c -0.225,1.821 0.17,3.361 0.883,3.45"
           stroke-miterlimit="10"
           inkscape:connector-curvature="0"
           style="fill:none;stroke:#1d1d1b;stroke-width:0.25;stroke-linecap:round;stroke-miterlimit:10" /></g><g
         id="g206"><path
           id="path202"
           d="m 325.039,150.079 c 0.357,-1.797 1.215,-3.138 1.92,-2.999"
           stroke-miterlimit="10"
           inkscape:connector-curvature="0"
           style="fill:none;stroke:#1d1d1b;stroke-width:0.25;stroke-linecap:round;stroke-miterlimit:10" /><path
           id="path204"
           d="m 324.893,150.814 c -0.357,1.798 -0.078,3.367 0.627,3.505"
           stroke-miterlimit="10"
           inkscape:connector-curvature="0"
           style="fill:none;stroke:#1d1d1b;stroke-width:0.25;stroke-linecap:round;stroke-miterlimit:10" /></g><g
         id="g212"><path
           id="path208"
           d="m 327.528,150.938 c 0.513,-1.758 1.485,-3.022 2.174,-2.82"
           stroke-miterlimit="10"
           inkscape:connector-curvature="0"
           style="fill:none;stroke:#1d1d1b;stroke-width:0.25;stroke-linecap:round;stroke-miterlimit:10" /><path
           id="path210"
           d="m 327.328,151.621 c -0.514,1.76 -0.373,3.347 0.314,3.548"
           stroke-miterlimit="10"
           inkscape:connector-curvature="0"
           style="fill:none;stroke:#1d1d1b;stroke-width:0.25;stroke-linecap:round;stroke-miterlimit:10" /></g><g
         id="g218"><path
           id="path214"
           d="m 329.798,152.453 c 0.499,-1.766 1.462,-3.034 2.15,-2.84"
           stroke-miterlimit="10"
           inkscape:connector-curvature="0"
           style="fill:none;stroke:#1d1d1b;stroke-width:0.25;stroke-linecap:round;stroke-miterlimit:10" /><path
           id="path216"
           d="m 329.535,153.382 c -0.503,1.764 -0.346,3.351 0.34,3.543"
           stroke-miterlimit="10"
           inkscape:connector-curvature="0"
           style="fill:none;stroke:#1d1d1b;stroke-width:0.25;stroke-linecap:round;stroke-miterlimit:10" /></g><g
         id="g224"><path
           id="path220"
           d="m 332.114,154.192 c 0.632,-1.719 1.693,-2.91 2.366,-2.664"
           stroke-miterlimit="10"
           inkscape:connector-curvature="0"
           style="fill:none;stroke:#1d1d1b;stroke-width:0.25;stroke-linecap:round;stroke-miterlimit:10" /><path
           id="path222"
           d="m 331.958,154.615 c -0.632,1.721 -0.601,3.314 0.073,3.562"
           stroke-miterlimit="10"
           inkscape:connector-curvature="0"
           style="fill:none;stroke:#1d1d1b;stroke-width:0.25;stroke-linecap:round;stroke-miterlimit:10" /></g><g
         id="g230"><path
           id="path226"
           d="m 334.727,155.695 c 0.595,-1.734 1.629,-2.944 2.307,-2.708"
           stroke-miterlimit="10"
           inkscape:connector-curvature="0"
           style="fill:none;stroke:#1d1d1b;stroke-width:0.25;stroke-linecap:round;stroke-miterlimit:10" /><path
           id="path228"
           d="m 334.4,156.544 c -0.6,1.734 -0.533,3.327 0.145,3.562"
           stroke-miterlimit="10"
           inkscape:connector-curvature="0"
           style="fill:none;stroke:#1d1d1b;stroke-width:0.25;stroke-linecap:round;stroke-miterlimit:10" /></g><g
         id="g236"><path
           id="path232"
           d="m 336.918,158.316 c 0.564,-1.743 1.576,-2.972 2.26,-2.751"
           stroke-miterlimit="10"
           inkscape:connector-curvature="0"
           style="fill:none;stroke:#1d1d1b;stroke-width:0.25;stroke-linecap:round;stroke-miterlimit:10" /><path
           id="path234"
           d="m 336.766,158.782 c -0.566,1.743 -0.474,3.336 0.209,3.558"
           stroke-miterlimit="10"
           inkscape:connector-curvature="0"
           style="fill:none;stroke:#1d1d1b;stroke-width:0.25;stroke-linecap:round;stroke-miterlimit:10" /></g></g><g
       id="g310"><path
         id="path240"
         d="m 189.508,197.569 c 0,4.598 -3.724,8.326 -8.323,8.326 v 0 c -4.597,0 -8.325,-3.729 -8.325,-8.326 v -10.565 c 0,-4.6 3.728,-8.328 8.325,-8.328 v 0 c 4.599,0 8.323,3.729 8.323,8.328 z"
         stroke-miterlimit="10"
         inkscape:connector-curvature="0"
         style="fill:#ffffff;stroke:#1d1d1b;stroke-width:0.5;stroke-miterlimit:10" /><g
         id="g244"><path
           id="path242"
           d="m 180.843,178.696 c 0,0 -0.007,-0.489 -0.02,-1.346 -0.017,-0.424 0.012,-0.959 -0.054,-1.531 -0.05,-0.581 -0.106,-1.236 -0.168,-1.951 -0.114,-0.713 -0.214,-1.492 -0.362,-2.307 -0.2,-0.803 -0.333,-1.674 -0.611,-2.535 -0.13,-0.434 -0.263,-0.874 -0.397,-1.32 -0.141,-0.444 -0.329,-0.877 -0.493,-1.323 -0.31,-0.903 -0.776,-1.751 -1.181,-2.63 -0.493,-0.829 -0.942,-1.691 -1.523,-2.447 -0.521,-0.801 -1.168,-1.482 -1.763,-2.168 -0.659,-0.622 -1.281,-1.246 -1.974,-1.713 -0.642,-0.539 -1.368,-0.862 -1.99,-1.243 -0.677,-0.259 -1.279,-0.575 -1.858,-0.706 -0.578,-0.124 -1.073,-0.309 -1.5,-0.33 -0.852,-0.081 -1.339,-0.127 -1.339,-0.127 0,0 0.489,0.027 1.345,0.075 0.432,0.005 0.933,0.17 1.523,0.274 0.591,0.11 1.208,0.403 1.908,0.642 0.644,0.359 1.398,0.663 2.072,1.185 0.726,0.451 1.383,1.06 2.083,1.672 0.633,0.674 1.324,1.349 1.888,2.146 0.625,0.753 1.118,1.614 1.657,2.447 0.449,0.881 0.961,1.737 1.314,2.647 0.187,0.451 0.396,0.889 0.559,1.339 0.156,0.453 0.309,0.9 0.46,1.339 0.32,0.875 0.492,1.761 0.729,2.582 0.185,0.832 0.319,1.628 0.465,2.359 0.093,0.745 0.178,1.428 0.253,2.033 0.091,0.612 0.081,1.121 0.114,1.552 0.045,0.855 0.071,1.344 0.071,1.344 z"
           inkscape:connector-curvature="0"
           style="fill:#1d1d1b" /></g><path
         id="path246"
         d="m 185.864,197.068 c 0,2.645 -2.096,4.785 -4.68,4.785 -2.584,0 -4.679,-2.141 -4.679,-4.785 0,-2.639 2.095,-4.783 4.679,-4.783 2.584,0 4.68,2.145 4.68,4.783 z"
         inkscape:connector-curvature="0"
         style="fill:#717070" /><ellipse
         id="ellipse248"
         ry="2.256"
         rx="3.743"
         cy="188.90601"
         cx="180.026"
         style="fill:#030303" /><text
         id="text250"
         font-size="4.2525"
         transform="translate(180.0244,198.1338)"
         style="font-size:4.25250006px;font-family:Helvetica-Bold;fill:#010101">n</text>
<text
         id="text252"
         font-size="4.2525"
         transform="translate(178.1357,190.0537)"
         style="font-size:4.25250006px;font-family:Helvetica-Bold;fill:#ffffff">m</text>
<path
         id="path254"
         d="m 182.014,178.557 c 5.298,-4.436 16.181,-0.148 24.331,9.583"
         stroke-miterlimit="10"
         inkscape:connector-curvature="0"
         style="fill:none;stroke:#1d1d1b;stroke-width:0.5;stroke-linecap:round;stroke-miterlimit:10" /><g
         id="g260"><path
           id="path256"
           d="m 185.582,177.269 c 0.044,1.835 0.66,3.304 1.378,3.285"
           stroke-miterlimit="10"
           inkscape:connector-curvature="0"
           style="fill:none;stroke:#1d1d1b;stroke-width:0.25;stroke-linecap:round;stroke-miterlimit:10" /><path
           id="path258"
           d="m 185.577,177.039 c -0.043,-1.833 0.502,-3.33 1.218,-3.346"
           stroke-miterlimit="10"
           inkscape:connector-curvature="0"
           style="fill:none;stroke:#1d1d1b;stroke-width:0.25;stroke-linecap:round;stroke-miterlimit:10" /></g><g
         id="g266"><path
           id="path262"
           d="m 187.999,176.3 c 0.13,-1.833 0.813,-3.268 1.528,-3.219"
           stroke-miterlimit="10"
           inkscape:connector-curvature="0"
           style="fill:none;stroke:#1d1d1b;stroke-width:0.25;stroke-linecap:round;stroke-miterlimit:10" /><path
           id="path264"
           d="m 187.938,177.14 c -0.129,1.828 0.343,3.351 1.058,3.4"
           stroke-miterlimit="10"
           inkscape:connector-curvature="0"
           style="fill:none;stroke:#1d1d1b;stroke-width:0.25;stroke-linecap:round;stroke-miterlimit:10" /></g><g
         id="g272"><path
           id="path268"
           d="m 190.409,176.947 c 0.225,-1.819 0.981,-3.222 1.694,-3.134"
           stroke-miterlimit="10"
           inkscape:connector-curvature="0"
           style="fill:none;stroke:#1d1d1b;stroke-width:0.25;stroke-linecap:round;stroke-miterlimit:10" /><path
           id="path270"
           d="m 190.307,177.786 c -0.222,1.818 0.171,3.361 0.885,3.448"
           stroke-miterlimit="10"
           inkscape:connector-curvature="0"
           style="fill:none;stroke:#1d1d1b;stroke-width:0.25;stroke-linecap:round;stroke-miterlimit:10" /></g><g
         id="g278"><path
           id="path274"
           d="m 192.826,177.585 c 0.359,-1.796 1.217,-3.14 1.919,-3.001"
           stroke-miterlimit="10"
           inkscape:connector-curvature="0"
           style="fill:none;stroke:#1d1d1b;stroke-width:0.25;stroke-linecap:round;stroke-miterlimit:10" /><path
           id="path276"
           d="m 192.682,178.321 c -0.357,1.794 -0.079,3.363 0.625,3.505"
           stroke-miterlimit="10"
           inkscape:connector-curvature="0"
           style="fill:none;stroke:#1d1d1b;stroke-width:0.25;stroke-linecap:round;stroke-miterlimit:10" /></g><g
         id="g284"><path
           id="path280"
           d="m 195.314,178.441 c 0.514,-1.759 1.489,-3.022 2.175,-2.819"
           stroke-miterlimit="10"
           inkscape:connector-curvature="0"
           style="fill:none;stroke:#1d1d1b;stroke-width:0.25;stroke-linecap:round;stroke-miterlimit:10" /><path
           id="path282"
           d="m 195.115,179.125 c -0.513,1.762 -0.371,3.35 0.317,3.551"
           stroke-miterlimit="10"
           inkscape:connector-curvature="0"
           style="fill:none;stroke:#1d1d1b;stroke-width:0.25;stroke-linecap:round;stroke-miterlimit:10" /></g><g
         id="g290"><path
           id="path286"
           d="m 197.584,179.959 c 0.499,-1.766 1.463,-3.033 2.153,-2.84"
           stroke-miterlimit="10"
           inkscape:connector-curvature="0"
           style="fill:none;stroke:#1d1d1b;stroke-width:0.25;stroke-linecap:round;stroke-miterlimit:10" /><path
           id="path288"
           d="m 197.321,180.887 c -0.5,1.763 -0.345,3.35 0.344,3.544"
           stroke-miterlimit="10"
           inkscape:connector-curvature="0"
           style="fill:none;stroke:#1d1d1b;stroke-width:0.25;stroke-linecap:round;stroke-miterlimit:10" /></g><g
         id="g296"><path
           id="path292"
           d="m 199.904,181.699 c 0.632,-1.721 1.69,-2.913 2.363,-2.667"
           stroke-miterlimit="10"
           inkscape:connector-curvature="0"
           style="fill:none;stroke:#1d1d1b;stroke-width:0.25;stroke-linecap:round;stroke-miterlimit:10" /><path
           id="path294"
           d="m 199.746,182.121 c -0.632,1.719 -0.599,3.316 0.074,3.561"
           stroke-miterlimit="10"
           inkscape:connector-curvature="0"
           style="fill:none;stroke:#1d1d1b;stroke-width:0.25;stroke-linecap:round;stroke-miterlimit:10" /></g><g
         id="g302"><path
           id="path298"
           d="m 202.513,183.201 c 0.597,-1.732 1.632,-2.946 2.309,-2.711"
           stroke-miterlimit="10"
           inkscape:connector-curvature="0"
           style="fill:none;stroke:#1d1d1b;stroke-width:0.25;stroke-linecap:round;stroke-miterlimit:10" /><path
           id="path300"
           d="m 202.188,184.052 c -0.599,1.729 -0.536,3.322 0.144,3.558"
           stroke-miterlimit="10"
           inkscape:connector-curvature="0"
           style="fill:none;stroke:#1d1d1b;stroke-width:0.25;stroke-linecap:round;stroke-miterlimit:10" /></g><g
         id="g308"><path
           id="path304"
           d="m 204.707,185.822 c 0.563,-1.743 1.575,-2.975 2.257,-2.754"
           stroke-miterlimit="10"
           inkscape:connector-curvature="0"
           style="fill:none;stroke:#1d1d1b;stroke-width:0.25;stroke-linecap:round;stroke-miterlimit:10" /><path
           id="path306"
           d="m 204.555,186.286 c -0.569,1.743 -0.475,3.335 0.207,3.556"
           stroke-miterlimit="10"
           inkscape:connector-curvature="0"
           style="fill:none;stroke:#1d1d1b;stroke-width:0.25;stroke-linecap:round;stroke-miterlimit:10" /></g></g><g
       id="g316"><ellipse
         id="ellipse312"
         ry="2.223"
         rx="3.016"
         cy="238.13499"
         cx="128.48599" /><line
         id="line314"
         y2="238.13499"
         x2="128.48599"
         y1="223.119"
         x1="114.744"
         stroke-miterlimit="10"
         style="fill:none;stroke:#000000;stroke-width:0.5;stroke-miterlimit:10" /></g><text
       style="font-size:7px;font-family:Helvetica"
       id="text318"
       font-size="7"
       transform="translate(98.8696,220.749)">Exocyst</text>
<g
       id="g324"><ellipse
         id="ellipse320"
         ry="2.223"
         rx="3.016"
         cy="260.672"
         cx="335.98401" /><line
         id="line322"
         y2="260.672"
         x2="335.98401"
         y1="238.957"
         x1="324.55899"
         stroke-miterlimit="10"
         style="fill:none;stroke:#000000;stroke-width:0.5;stroke-miterlimit:10" /></g><text
       style="font-size:7px;font-family:Helvetica"
       id="text326"
       font-size="7"
       transform="translate(268.1172,254.1641)">Polarisome</text>
<g
       id="g332"><ellipse
         id="ellipse328"
         ry="2.223"
         rx="2.8710001"
         cy="147.01601"
         cx="257.565" /><line
         id="line330"
         y2="147.01601"
         x2="257.565"
         y1="111.528"
         x1="214.33099"
         stroke-miterlimit="10"
         style="fill:none;stroke:#000000;stroke-width:0.5;stroke-miterlimit:10" /></g><g
       id="g338"><ellipse
         id="ellipse334"
         ry="2.223"
         rx="3.016"
         cy="147.01601"
         cx="249.02699" /><line
         id="line336"
         y2="147.01601"
         x2="249.02699"
         y1="134.66701"
         x1="220.66701"
         stroke-miterlimit="10"
         style="fill:none;stroke:#000000;stroke-width:0.5;stroke-miterlimit:10" /></g><text
       id="text344"
       transform="translate(147.625,132.8809)"><tspan
         style="font-size:7px;font-family:Helvetica"
         id="tspan340"
         font-size="7"
         y="0"
         x="0">Filamentous polarised </tspan><tspan
         style="font-size:7px;font-family:Helvetica"
         id="tspan342"
         font-size="7"
         y="8.3990002"
         x="0">cell growth</tspan></text>
<text
       id="text350"
       transform="translate(268.1172,235.1133)"><tspan
         style="font-size:7px;font-family:Helvetica"
         id="tspan346"
         font-size="7"
         y="0"
         x="0">Filamentous polarised </tspan><tspan
         style="font-size:7px;font-family:Helvetica"
         id="tspan348"
         font-size="7"
         y="8.3990002"
         x="0">cell growth</tspan></text>
<g
       id="g356"><ellipse
         id="ellipse352"
         ry="2.223"
         rx="3.016"
         cy="260.84601"
         cx="327.57501" /><line
         id="line354"
         y2="260.84601"
         x2="327.57501"
         y1="253.164"
         x1="308.49399"
         stroke-miterlimit="10"
         style="fill:none;stroke:#000000;stroke-width:0.5;stroke-miterlimit:10" /></g></g></svg>