<?xml version="1.0" encoding="utf-8" standalone="no"?>
<!DOCTYPE svg PUBLIC "-//W3C//DTD SVG 1.1//EN"
  "http://www.w3.org/Graphics/SVG/1.1/DTD/svg11.dtd">
<!-- Created with matplotlib (http://matplotlib.org/) -->
<svg height="720pt" version="1.1" viewBox="0 0 2160 720" width="2160pt" xmlns="http://www.w3.org/2000/svg" xmlns:xlink="http://www.w3.org/1999/xlink">
 <defs>
  <style type="text/css">
*{stroke-linecap:butt;stroke-linejoin:round;stroke-miterlimit:100000;}
  </style>
 </defs>
 <g id="figure_1">
  <g id="patch_1">
   <path d="M 0 720 
L 2160 720 
L 2160 0 
L 0 0 
z
" style="fill:#ffffff;"/>
  </g>
  <g id="axes_1">
   <g id="patch_2">
    <path d="M 149.795 485.450767 
L 512.357948 485.450767 
L 512.357948 38.88 
L 149.795 38.88 
z
" style="fill:#f0f0f5;"/>
   </g>
   <g id="patch_3">
    <path clip-path="url(#p27bb49a6e9)" d="M 180.008579 485.450767 
L 280.720509 485.450767 
L 280.720509 485.085771 
L 180.008579 485.085771 
z
" style="fill:#4d4d4d;stroke:#000000;stroke-linejoin:miter;"/>
   </g>
   <g id="patch_4">
    <path clip-path="url(#p27bb49a6e9)" d="M 381.432439 485.450767 
L 482.144369 485.450767 
L 482.144369 79.842338 
L 381.432439 79.842338 
z
" style="fill:#4d4d4d;stroke:#000000;stroke-linejoin:miter;"/>
   </g>
   <g id="patch_5">
    <path d="M 149.795 38.88 
L 512.357948 38.88 
" style="fill:none;stroke:#000000;stroke-linecap:square;stroke-linejoin:miter;"/>
   </g>
   <g id="patch_6">
    <path d="M 512.357948 485.450767 
L 512.357948 38.88 
" style="fill:none;stroke:#000000;stroke-linecap:square;stroke-linejoin:miter;"/>
   </g>
   <g id="patch_7">
    <path d="M 149.795 485.450767 
L 512.357948 485.450767 
" style="fill:none;stroke:#000000;stroke-linecap:square;stroke-linejoin:miter;"/>
   </g>
   <g id="patch_8">
    <path d="M 149.795 485.450767 
L 149.795 38.88 
" style="fill:none;stroke:#000000;stroke-linecap:square;stroke-linejoin:miter;"/>
   </g>
   <g id="matplotlib.axis_1">
    <g id="xtick_1">
     <g id="line2d_1">
      <defs>
       <path d="M 0 0 
L 0 -4 
" id="m30404e96f5" style="stroke:#000000;stroke-width:0.5;"/>
      </defs>
      <g>
       <use style="stroke:#000000;stroke-width:0.5;" x="230.364544052" xlink:href="#m30404e96f5" y="485.450766681"/>
      </g>
     </g>
     <g id="line2d_2">
      <defs>
       <path d="M 0 0 
L 0 4 
" id="m79207e0111" style="stroke:#000000;stroke-width:0.5;"/>
      </defs>
      <g>
       <use style="stroke:#000000;stroke-width:0.5;" x="230.364544052" xlink:href="#m79207e0111" y="38.88"/>
      </g>
     </g>
     <g id="text_1">
      <!-- Unmapped (assembly) -->
      <defs>
       <path id="BitstreamVeraSans-Roman-20"/>
       <path d="M 54.890625 33.015625 
L 54.890625 0 
L 45.90625 0 
L 45.90625 32.71875 
Q 45.90625 40.484375 42.875 44.328125 
Q 39.84375 48.1875 33.796875 48.1875 
Q 26.515625 48.1875 22.3125 43.546875 
Q 18.109375 38.921875 18.109375 30.90625 
L 18.109375 0 
L 9.078125 0 
L 9.078125 54.6875 
L 18.109375 54.6875 
L 18.109375 46.1875 
Q 21.34375 51.125 25.703125 53.5625 
Q 30.078125 56 35.796875 56 
Q 45.21875 56 50.046875 50.171875 
Q 54.890625 44.34375 54.890625 33.015625 
" id="BitstreamVeraSans-Roman-6e"/>
       <path d="M 52 44.1875 
Q 55.375 50.25 60.0625 53.125 
Q 64.75 56 71.09375 56 
Q 79.640625 56 84.28125 50.015625 
Q 88.921875 44.046875 88.921875 33.015625 
L 88.921875 0 
L 79.890625 0 
L 79.890625 32.71875 
Q 79.890625 40.578125 77.09375 44.375 
Q 74.3125 48.1875 68.609375 48.1875 
Q 61.625 48.1875 57.5625 43.546875 
Q 53.515625 38.921875 53.515625 30.90625 
L 53.515625 0 
L 44.484375 0 
L 44.484375 32.71875 
Q 44.484375 40.625 41.703125 44.40625 
Q 38.921875 48.1875 33.109375 48.1875 
Q 26.21875 48.1875 22.15625 43.53125 
Q 18.109375 38.875 18.109375 30.90625 
L 18.109375 0 
L 9.078125 0 
L 9.078125 54.6875 
L 18.109375 54.6875 
L 18.109375 46.1875 
Q 21.1875 51.21875 25.484375 53.609375 
Q 29.78125 56 35.6875 56 
Q 41.65625 56 45.828125 52.96875 
Q 50 49.953125 52 44.1875 
" id="BitstreamVeraSans-Roman-6d"/>
       <path d="M 32.171875 -5.078125 
Q 28.375 -14.84375 24.75 -17.8125 
Q 21.140625 -20.796875 15.09375 -20.796875 
L 7.90625 -20.796875 
L 7.90625 -13.28125 
L 13.1875 -13.28125 
Q 16.890625 -13.28125 18.9375 -11.515625 
Q 21 -9.765625 23.484375 -3.21875 
L 25.09375 0.875 
L 2.984375 54.6875 
L 12.5 54.6875 
L 29.59375 11.921875 
L 46.6875 54.6875 
L 56.203125 54.6875 
z
" id="BitstreamVeraSans-Roman-79"/>
       <path d="M 9.421875 75.984375 
L 18.40625 75.984375 
L 18.40625 0 
L 9.421875 0 
z
" id="BitstreamVeraSans-Roman-6c"/>
       <path d="M 8.015625 75.875 
L 15.828125 75.875 
Q 23.140625 64.359375 26.78125 53.3125 
Q 30.421875 42.28125 30.421875 31.390625 
Q 30.421875 20.453125 26.78125 9.375 
Q 23.140625 -1.703125 15.828125 -13.1875 
L 8.015625 -13.1875 
Q 14.5 -2 17.703125 9.0625 
Q 20.90625 20.125 20.90625 31.390625 
Q 20.90625 42.671875 17.703125 53.65625 
Q 14.5 64.65625 8.015625 75.875 
" id="BitstreamVeraSans-Roman-29"/>
       <path d="M 8.6875 72.90625 
L 18.609375 72.90625 
L 18.609375 28.609375 
Q 18.609375 16.890625 22.84375 11.734375 
Q 27.09375 6.59375 36.625 6.59375 
Q 46.09375 6.59375 50.34375 11.734375 
Q 54.59375 16.890625 54.59375 28.609375 
L 54.59375 72.90625 
L 64.5 72.90625 
L 64.5 27.390625 
Q 64.5 13.140625 57.4375 5.859375 
Q 50.390625 -1.421875 36.625 -1.421875 
Q 22.796875 -1.421875 15.734375 5.859375 
Q 8.6875 13.140625 8.6875 27.390625 
z
" id="BitstreamVeraSans-Roman-55"/>
       <path d="M 31 75.875 
Q 24.46875 64.65625 21.28125 53.65625 
Q 18.109375 42.671875 18.109375 31.390625 
Q 18.109375 20.125 21.3125 9.0625 
Q 24.515625 -2 31 -13.1875 
L 23.1875 -13.1875 
Q 15.875 -1.703125 12.234375 9.375 
Q 8.59375 20.453125 8.59375 31.390625 
Q 8.59375 42.28125 12.203125 53.3125 
Q 15.828125 64.359375 23.1875 75.875 
z
" id="BitstreamVeraSans-Roman-28"/>
       <path d="M 56.203125 29.59375 
L 56.203125 25.203125 
L 14.890625 25.203125 
Q 15.484375 15.921875 20.484375 11.0625 
Q 25.484375 6.203125 34.421875 6.203125 
Q 39.59375 6.203125 44.453125 7.46875 
Q 49.3125 8.734375 54.109375 11.28125 
L 54.109375 2.78125 
Q 49.265625 0.734375 44.1875 -0.34375 
Q 39.109375 -1.421875 33.890625 -1.421875 
Q 20.796875 -1.421875 13.15625 6.1875 
Q 5.515625 13.8125 5.515625 26.8125 
Q 5.515625 40.234375 12.765625 48.109375 
Q 20.015625 56 32.328125 56 
Q 43.359375 56 49.78125 48.890625 
Q 56.203125 41.796875 56.203125 29.59375 
M 47.21875 32.234375 
Q 47.125 39.59375 43.09375 43.984375 
Q 39.0625 48.390625 32.421875 48.390625 
Q 24.90625 48.390625 20.390625 44.140625 
Q 15.875 39.890625 15.1875 32.171875 
z
" id="BitstreamVeraSans-Roman-65"/>
       <path d="M 45.40625 46.390625 
L 45.40625 75.984375 
L 54.390625 75.984375 
L 54.390625 0 
L 45.40625 0 
L 45.40625 8.203125 
Q 42.578125 3.328125 38.25 0.953125 
Q 33.9375 -1.421875 27.875 -1.421875 
Q 17.96875 -1.421875 11.734375 6.484375 
Q 5.515625 14.40625 5.515625 27.296875 
Q 5.515625 40.1875 11.734375 48.09375 
Q 17.96875 56 27.875 56 
Q 33.9375 56 38.25 53.625 
Q 42.578125 51.265625 45.40625 46.390625 
M 14.796875 27.296875 
Q 14.796875 17.390625 18.875 11.75 
Q 22.953125 6.109375 30.078125 6.109375 
Q 37.203125 6.109375 41.296875 11.75 
Q 45.40625 17.390625 45.40625 27.296875 
Q 45.40625 37.203125 41.296875 42.84375 
Q 37.203125 48.484375 30.078125 48.484375 
Q 22.953125 48.484375 18.875 42.84375 
Q 14.796875 37.203125 14.796875 27.296875 
" id="BitstreamVeraSans-Roman-64"/>
       <path d="M 34.28125 27.484375 
Q 23.390625 27.484375 19.1875 25 
Q 14.984375 22.515625 14.984375 16.5 
Q 14.984375 11.71875 18.140625 8.90625 
Q 21.296875 6.109375 26.703125 6.109375 
Q 34.1875 6.109375 38.703125 11.40625 
Q 43.21875 16.703125 43.21875 25.484375 
L 43.21875 27.484375 
z
M 52.203125 31.203125 
L 52.203125 0 
L 43.21875 0 
L 43.21875 8.296875 
Q 40.140625 3.328125 35.546875 0.953125 
Q 30.953125 -1.421875 24.3125 -1.421875 
Q 15.921875 -1.421875 10.953125 3.296875 
Q 6 8.015625 6 15.921875 
Q 6 25.140625 12.171875 29.828125 
Q 18.359375 34.515625 30.609375 34.515625 
L 43.21875 34.515625 
L 43.21875 35.40625 
Q 43.21875 41.609375 39.140625 45 
Q 35.0625 48.390625 27.6875 48.390625 
Q 23 48.390625 18.546875 47.265625 
Q 14.109375 46.140625 10.015625 43.890625 
L 10.015625 52.203125 
Q 14.9375 54.109375 19.578125 55.046875 
Q 24.21875 56 28.609375 56 
Q 40.484375 56 46.34375 49.84375 
Q 52.203125 43.703125 52.203125 31.203125 
" id="BitstreamVeraSans-Roman-61"/>
       <path d="M 44.28125 53.078125 
L 44.28125 44.578125 
Q 40.484375 46.53125 36.375 47.5 
Q 32.28125 48.484375 27.875 48.484375 
Q 21.1875 48.484375 17.84375 46.4375 
Q 14.5 44.390625 14.5 40.28125 
Q 14.5 37.15625 16.890625 35.375 
Q 19.28125 33.59375 26.515625 31.984375 
L 29.59375 31.296875 
Q 39.15625 29.25 43.1875 25.515625 
Q 47.21875 21.78125 47.21875 15.09375 
Q 47.21875 7.46875 41.1875 3.015625 
Q 35.15625 -1.421875 24.609375 -1.421875 
Q 20.21875 -1.421875 15.453125 -0.5625 
Q 10.6875 0.296875 5.421875 2 
L 5.421875 11.28125 
Q 10.40625 8.6875 15.234375 7.390625 
Q 20.0625 6.109375 24.8125 6.109375 
Q 31.15625 6.109375 34.5625 8.28125 
Q 37.984375 10.453125 37.984375 14.40625 
Q 37.984375 18.0625 35.515625 20.015625 
Q 33.0625 21.96875 24.703125 23.78125 
L 21.578125 24.515625 
Q 13.234375 26.265625 9.515625 29.90625 
Q 5.8125 33.546875 5.8125 39.890625 
Q 5.8125 47.609375 11.28125 51.796875 
Q 16.75 56 26.8125 56 
Q 31.78125 56 36.171875 55.265625 
Q 40.578125 54.546875 44.28125 53.078125 
" id="BitstreamVeraSans-Roman-73"/>
       <path d="M 18.109375 8.203125 
L 18.109375 -20.796875 
L 9.078125 -20.796875 
L 9.078125 54.6875 
L 18.109375 54.6875 
L 18.109375 46.390625 
Q 20.953125 51.265625 25.265625 53.625 
Q 29.59375 56 35.59375 56 
Q 45.5625 56 51.78125 48.09375 
Q 58.015625 40.1875 58.015625 27.296875 
Q 58.015625 14.40625 51.78125 6.484375 
Q 45.5625 -1.421875 35.59375 -1.421875 
Q 29.59375 -1.421875 25.265625 0.953125 
Q 20.953125 3.328125 18.109375 8.203125 
M 48.6875 27.296875 
Q 48.6875 37.203125 44.609375 42.84375 
Q 40.53125 48.484375 33.40625 48.484375 
Q 26.265625 48.484375 22.1875 42.84375 
Q 18.109375 37.203125 18.109375 27.296875 
Q 18.109375 17.390625 22.1875 11.75 
Q 26.265625 6.109375 33.40625 6.109375 
Q 40.53125 6.109375 44.609375 11.75 
Q 48.6875 17.390625 48.6875 27.296875 
" id="BitstreamVeraSans-Roman-70"/>
       <path d="M 48.6875 27.296875 
Q 48.6875 37.203125 44.609375 42.84375 
Q 40.53125 48.484375 33.40625 48.484375 
Q 26.265625 48.484375 22.1875 42.84375 
Q 18.109375 37.203125 18.109375 27.296875 
Q 18.109375 17.390625 22.1875 11.75 
Q 26.265625 6.109375 33.40625 6.109375 
Q 40.53125 6.109375 44.609375 11.75 
Q 48.6875 17.390625 48.6875 27.296875 
M 18.109375 46.390625 
Q 20.953125 51.265625 25.265625 53.625 
Q 29.59375 56 35.59375 56 
Q 45.5625 56 51.78125 48.09375 
Q 58.015625 40.1875 58.015625 27.296875 
Q 58.015625 14.40625 51.78125 6.484375 
Q 45.5625 -1.421875 35.59375 -1.421875 
Q 29.59375 -1.421875 25.265625 0.953125 
Q 20.953125 3.328125 18.109375 8.203125 
L 18.109375 0 
L 9.078125 0 
L 9.078125 75.984375 
L 18.109375 75.984375 
z
" id="BitstreamVeraSans-Roman-62"/>
      </defs>
      <g transform="translate(154.229031096 664.272297055)rotate(-45.0)scale(0.2 -0.2)">
       <use xlink:href="#BitstreamVeraSans-Roman-55"/>
       <use x="73.193359375" xlink:href="#BitstreamVeraSans-Roman-6e"/>
       <use x="136.572265625" xlink:href="#BitstreamVeraSans-Roman-6d"/>
       <use x="233.984375" xlink:href="#BitstreamVeraSans-Roman-61"/>
       <use x="295.263671875" xlink:href="#BitstreamVeraSans-Roman-70"/>
       <use x="358.740234375" xlink:href="#BitstreamVeraSans-Roman-70"/>
       <use x="422.216796875" xlink:href="#BitstreamVeraSans-Roman-65"/>
       <use x="483.740234375" xlink:href="#BitstreamVeraSans-Roman-64"/>
       <use x="547.216796875" xlink:href="#BitstreamVeraSans-Roman-20"/>
       <use x="579.00390625" xlink:href="#BitstreamVeraSans-Roman-28"/>
       <use x="618.017578125" xlink:href="#BitstreamVeraSans-Roman-61"/>
       <use x="679.296875" xlink:href="#BitstreamVeraSans-Roman-73"/>
       <use x="731.396484375" xlink:href="#BitstreamVeraSans-Roman-73"/>
       <use x="783.49609375" xlink:href="#BitstreamVeraSans-Roman-65"/>
       <use x="845.01953125" xlink:href="#BitstreamVeraSans-Roman-6d"/>
       <use x="942.431640625" xlink:href="#BitstreamVeraSans-Roman-62"/>
       <use x="1005.90820312" xlink:href="#BitstreamVeraSans-Roman-6c"/>
       <use x="1033.69140625" xlink:href="#BitstreamVeraSans-Roman-79"/>
       <use x="1092.87109375" xlink:href="#BitstreamVeraSans-Roman-29"/>
      </g>
     </g>
    </g>
    <g id="xtick_2">
     <g id="line2d_3">
      <g>
       <use style="stroke:#000000;stroke-width:0.5;" x="431.788404182" xlink:href="#m30404e96f5" y="485.450766681"/>
      </g>
     </g>
     <g id="line2d_4">
      <g>
       <use style="stroke:#000000;stroke-width:0.5;" x="431.788404182" xlink:href="#m79207e0111" y="38.88"/>
      </g>
     </g>
     <g id="text_2">
      <!-- Mapped (assembly) -->
      <defs>
       <path d="M 9.8125 72.90625 
L 24.515625 72.90625 
L 43.109375 23.296875 
L 61.8125 72.90625 
L 76.515625 72.90625 
L 76.515625 0 
L 66.890625 0 
L 66.890625 64.015625 
L 48.09375 14.015625 
L 38.1875 14.015625 
L 19.390625 64.015625 
L 19.390625 0 
L 9.8125 0 
z
" id="BitstreamVeraSans-Roman-4d"/>
      </defs>
      <g transform="translate(366.095974501 643.386130505)rotate(-45.0)scale(0.2 -0.2)">
       <use xlink:href="#BitstreamVeraSans-Roman-4d"/>
       <use x="86.279296875" xlink:href="#BitstreamVeraSans-Roman-61"/>
       <use x="147.55859375" xlink:href="#BitstreamVeraSans-Roman-70"/>
       <use x="211.03515625" xlink:href="#BitstreamVeraSans-Roman-70"/>
       <use x="274.51171875" xlink:href="#BitstreamVeraSans-Roman-65"/>
       <use x="336.03515625" xlink:href="#BitstreamVeraSans-Roman-64"/>
       <use x="399.51171875" xlink:href="#BitstreamVeraSans-Roman-20"/>
       <use x="431.298828125" xlink:href="#BitstreamVeraSans-Roman-28"/>
       <use x="470.3125" xlink:href="#BitstreamVeraSans-Roman-61"/>
       <use x="531.591796875" xlink:href="#BitstreamVeraSans-Roman-73"/>
       <use x="583.69140625" xlink:href="#BitstreamVeraSans-Roman-73"/>
       <use x="635.791015625" xlink:href="#BitstreamVeraSans-Roman-65"/>
       <use x="697.314453125" xlink:href="#BitstreamVeraSans-Roman-6d"/>
       <use x="794.7265625" xlink:href="#BitstreamVeraSans-Roman-62"/>
       <use x="858.203125" xlink:href="#BitstreamVeraSans-Roman-6c"/>
       <use x="885.986328125" xlink:href="#BitstreamVeraSans-Roman-79"/>
       <use x="945.166015625" xlink:href="#BitstreamVeraSans-Roman-29"/>
      </g>
     </g>
    </g>
   </g>
   <g id="matplotlib.axis_2">
    <g id="ytick_1">
     <g id="line2d_5">
      <path clip-path="url(#p27bb49a6e9)" d="M 149.795 485.450767 
L 512.357948 485.450767 
" style="fill:none;stroke:#ffffff;stroke-dasharray:6.000000,6.000000;stroke-dashoffset:0.0;stroke-width:2.0;"/>
     </g>
     <g id="line2d_6">
      <defs>
       <path d="M 0 0 
L 4 0 
" id="mc7c15cf7a2" style="stroke:#000000;stroke-width:0.5;"/>
      </defs>
      <g>
       <use style="stroke:#000000;stroke-width:0.5;" x="149.795" xlink:href="#mc7c15cf7a2" y="485.450766681"/>
      </g>
     </g>
     <g id="line2d_7">
      <defs>
       <path d="M 0 0 
L -4 0 
" id="m368bce83df" style="stroke:#000000;stroke-width:0.5;"/>
      </defs>
      <g>
       <use style="stroke:#000000;stroke-width:0.5;" x="512.357948234" xlink:href="#m368bce83df" y="485.450766681"/>
      </g>
     </g>
     <g id="text_3">
      <!-- 0% -->
      <defs>
       <path d="M 31.78125 66.40625 
Q 24.171875 66.40625 20.328125 58.90625 
Q 16.5 51.421875 16.5 36.375 
Q 16.5 21.390625 20.328125 13.890625 
Q 24.171875 6.390625 31.78125 6.390625 
Q 39.453125 6.390625 43.28125 13.890625 
Q 47.125 21.390625 47.125 36.375 
Q 47.125 51.421875 43.28125 58.90625 
Q 39.453125 66.40625 31.78125 66.40625 
M 31.78125 74.21875 
Q 44.046875 74.21875 50.515625 64.515625 
Q 56.984375 54.828125 56.984375 36.375 
Q 56.984375 17.96875 50.515625 8.265625 
Q 44.046875 -1.421875 31.78125 -1.421875 
Q 19.53125 -1.421875 13.0625 8.265625 
Q 6.59375 17.96875 6.59375 36.375 
Q 6.59375 54.828125 13.0625 64.515625 
Q 19.53125 74.21875 31.78125 74.21875 
" id="BitstreamVeraSans-Roman-30"/>
       <path d="M 72.703125 32.078125 
Q 68.453125 32.078125 66.03125 28.46875 
Q 63.625 24.859375 63.625 18.40625 
Q 63.625 12.0625 66.03125 8.421875 
Q 68.453125 4.78125 72.703125 4.78125 
Q 76.859375 4.78125 79.265625 8.421875 
Q 81.6875 12.0625 81.6875 18.40625 
Q 81.6875 24.8125 79.265625 28.4375 
Q 76.859375 32.078125 72.703125 32.078125 
M 72.703125 38.28125 
Q 80.421875 38.28125 84.953125 32.90625 
Q 89.5 27.546875 89.5 18.40625 
Q 89.5 9.28125 84.9375 3.921875 
Q 80.375 -1.421875 72.703125 -1.421875 
Q 64.890625 -1.421875 60.34375 3.921875 
Q 55.8125 9.28125 55.8125 18.40625 
Q 55.8125 27.59375 60.375 32.9375 
Q 64.9375 38.28125 72.703125 38.28125 
M 22.3125 68.015625 
Q 18.109375 68.015625 15.6875 64.375 
Q 13.28125 60.75 13.28125 54.390625 
Q 13.28125 47.953125 15.671875 44.328125 
Q 18.0625 40.71875 22.3125 40.71875 
Q 26.5625 40.71875 28.96875 44.328125 
Q 31.390625 47.953125 31.390625 54.390625 
Q 31.390625 60.6875 28.953125 64.34375 
Q 26.515625 68.015625 22.3125 68.015625 
M 66.40625 74.21875 
L 74.21875 74.21875 
L 28.609375 -1.421875 
L 20.796875 -1.421875 
z
M 22.3125 74.21875 
Q 30.03125 74.21875 34.609375 68.875 
Q 39.203125 63.53125 39.203125 54.390625 
Q 39.203125 45.171875 34.640625 39.84375 
Q 30.078125 34.515625 22.3125 34.515625 
Q 14.546875 34.515625 10.03125 39.859375 
Q 5.515625 45.21875 5.515625 54.390625 
Q 5.515625 63.484375 10.046875 68.84375 
Q 14.59375 74.21875 22.3125 74.21875 
" id="BitstreamVeraSans-Roman-25"/>
      </defs>
      <g transform="translate(84.684375 495.384516681)scale(0.36 -0.36)">
       <use xlink:href="#BitstreamVeraSans-Roman-30"/>
       <use x="63.623046875" xlink:href="#BitstreamVeraSans-Roman-25"/>
      </g>
     </g>
    </g>
    <g id="ytick_2">
     <g id="line2d_8">
      <path clip-path="url(#p27bb49a6e9)" d="M 149.795 404.256082 
L 512.357948 404.256082 
" style="fill:none;stroke:#ffffff;stroke-dasharray:6.000000,6.000000;stroke-dashoffset:0.0;stroke-width:2.0;"/>
     </g>
     <g id="line2d_9">
      <g>
       <use style="stroke:#000000;stroke-width:0.5;" x="149.795" xlink:href="#mc7c15cf7a2" y="404.25608183"/>
      </g>
     </g>
     <g id="line2d_10">
      <g>
       <use style="stroke:#000000;stroke-width:0.5;" x="512.357948234" xlink:href="#m368bce83df" y="404.25608183"/>
      </g>
     </g>
     <g id="text_4">
      <!-- 20% -->
      <defs>
       <path d="M 19.1875 8.296875 
L 53.609375 8.296875 
L 53.609375 0 
L 7.328125 0 
L 7.328125 8.296875 
Q 12.9375 14.109375 22.625 23.890625 
Q 32.328125 33.6875 34.8125 36.53125 
Q 39.546875 41.84375 41.421875 45.53125 
Q 43.3125 49.21875 43.3125 52.78125 
Q 43.3125 58.59375 39.234375 62.25 
Q 35.15625 65.921875 28.609375 65.921875 
Q 23.96875 65.921875 18.8125 64.3125 
Q 13.671875 62.703125 7.8125 59.421875 
L 7.8125 69.390625 
Q 13.765625 71.78125 18.9375 73 
Q 24.125 74.21875 28.421875 74.21875 
Q 39.75 74.21875 46.484375 68.546875 
Q 53.21875 62.890625 53.21875 53.421875 
Q 53.21875 48.921875 51.53125 44.890625 
Q 49.859375 40.875 45.40625 35.40625 
Q 44.1875 33.984375 37.640625 27.21875 
Q 31.109375 20.453125 19.1875 8.296875 
" id="BitstreamVeraSans-Roman-32"/>
      </defs>
      <g transform="translate(61.779375 414.18983183)scale(0.36 -0.36)">
       <use xlink:href="#BitstreamVeraSans-Roman-32"/>
       <use x="63.623046875" xlink:href="#BitstreamVeraSans-Roman-30"/>
       <use x="127.24609375" xlink:href="#BitstreamVeraSans-Roman-25"/>
      </g>
     </g>
    </g>
    <g id="ytick_3">
     <g id="line2d_11">
      <path clip-path="url(#p27bb49a6e9)" d="M 149.795 323.061397 
L 512.357948 323.061397 
" style="fill:none;stroke:#ffffff;stroke-dasharray:6.000000,6.000000;stroke-dashoffset:0.0;stroke-width:2.0;"/>
     </g>
     <g id="line2d_12">
      <g>
       <use style="stroke:#000000;stroke-width:0.5;" x="149.795" xlink:href="#mc7c15cf7a2" y="323.061396979"/>
      </g>
     </g>
     <g id="line2d_13">
      <g>
       <use style="stroke:#000000;stroke-width:0.5;" x="512.357948234" xlink:href="#m368bce83df" y="323.061396979"/>
      </g>
     </g>
     <g id="text_5">
      <!-- 40% -->
      <defs>
       <path d="M 37.796875 64.3125 
L 12.890625 25.390625 
L 37.796875 25.390625 
z
M 35.203125 72.90625 
L 47.609375 72.90625 
L 47.609375 25.390625 
L 58.015625 25.390625 
L 58.015625 17.1875 
L 47.609375 17.1875 
L 47.609375 0 
L 37.796875 0 
L 37.796875 17.1875 
L 4.890625 17.1875 
L 4.890625 26.703125 
z
" id="BitstreamVeraSans-Roman-34"/>
      </defs>
      <g transform="translate(61.779375 332.995146979)scale(0.36 -0.36)">
       <use xlink:href="#BitstreamVeraSans-Roman-34"/>
       <use x="63.623046875" xlink:href="#BitstreamVeraSans-Roman-30"/>
       <use x="127.24609375" xlink:href="#BitstreamVeraSans-Roman-25"/>
      </g>
     </g>
    </g>
    <g id="ytick_4">
     <g id="line2d_14">
      <path clip-path="url(#p27bb49a6e9)" d="M 149.795 241.866712 
L 512.357948 241.866712 
" style="fill:none;stroke:#ffffff;stroke-dasharray:6.000000,6.000000;stroke-dashoffset:0.0;stroke-width:2.0;"/>
     </g>
     <g id="line2d_15">
      <g>
       <use style="stroke:#000000;stroke-width:0.5;" x="149.795" xlink:href="#mc7c15cf7a2" y="241.866712128"/>
      </g>
     </g>
     <g id="line2d_16">
      <g>
       <use style="stroke:#000000;stroke-width:0.5;" x="512.357948234" xlink:href="#m368bce83df" y="241.866712128"/>
      </g>
     </g>
     <g id="text_6">
      <!-- 60% -->
      <defs>
       <path d="M 33.015625 40.375 
Q 26.375 40.375 22.484375 35.828125 
Q 18.609375 31.296875 18.609375 23.390625 
Q 18.609375 15.53125 22.484375 10.953125 
Q 26.375 6.390625 33.015625 6.390625 
Q 39.65625 6.390625 43.53125 10.953125 
Q 47.40625 15.53125 47.40625 23.390625 
Q 47.40625 31.296875 43.53125 35.828125 
Q 39.65625 40.375 33.015625 40.375 
M 52.59375 71.296875 
L 52.59375 62.3125 
Q 48.875 64.0625 45.09375 64.984375 
Q 41.3125 65.921875 37.59375 65.921875 
Q 27.828125 65.921875 22.671875 59.328125 
Q 17.53125 52.734375 16.796875 39.40625 
Q 19.671875 43.65625 24.015625 45.921875 
Q 28.375 48.1875 33.59375 48.1875 
Q 44.578125 48.1875 50.953125 41.515625 
Q 57.328125 34.859375 57.328125 23.390625 
Q 57.328125 12.15625 50.6875 5.359375 
Q 44.046875 -1.421875 33.015625 -1.421875 
Q 20.359375 -1.421875 13.671875 8.265625 
Q 6.984375 17.96875 6.984375 36.375 
Q 6.984375 53.65625 15.1875 63.9375 
Q 23.390625 74.21875 37.203125 74.21875 
Q 40.921875 74.21875 44.703125 73.484375 
Q 48.484375 72.75 52.59375 71.296875 
" id="BitstreamVeraSans-Roman-36"/>
      </defs>
      <g transform="translate(61.779375 251.800462128)scale(0.36 -0.36)">
       <use xlink:href="#BitstreamVeraSans-Roman-36"/>
       <use x="63.623046875" xlink:href="#BitstreamVeraSans-Roman-30"/>
       <use x="127.24609375" xlink:href="#BitstreamVeraSans-Roman-25"/>
      </g>
     </g>
    </g>
    <g id="ytick_5">
     <g id="line2d_17">
      <path clip-path="url(#p27bb49a6e9)" d="M 149.795 160.672027 
L 512.357948 160.672027 
" style="fill:none;stroke:#ffffff;stroke-dasharray:6.000000,6.000000;stroke-dashoffset:0.0;stroke-width:2.0;"/>
     </g>
     <g id="line2d_18">
      <g>
       <use style="stroke:#000000;stroke-width:0.5;" x="149.795" xlink:href="#mc7c15cf7a2" y="160.672027277"/>
      </g>
     </g>
     <g id="line2d_19">
      <g>
       <use style="stroke:#000000;stroke-width:0.5;" x="512.357948234" xlink:href="#m368bce83df" y="160.672027277"/>
      </g>
     </g>
     <g id="text_7">
      <!-- 80% -->
      <defs>
       <path d="M 31.78125 34.625 
Q 24.75 34.625 20.71875 30.859375 
Q 16.703125 27.09375 16.703125 20.515625 
Q 16.703125 13.921875 20.71875 10.15625 
Q 24.75 6.390625 31.78125 6.390625 
Q 38.8125 6.390625 42.859375 10.171875 
Q 46.921875 13.96875 46.921875 20.515625 
Q 46.921875 27.09375 42.890625 30.859375 
Q 38.875 34.625 31.78125 34.625 
M 21.921875 38.8125 
Q 15.578125 40.375 12.03125 44.71875 
Q 8.5 49.078125 8.5 55.328125 
Q 8.5 64.0625 14.71875 69.140625 
Q 20.953125 74.21875 31.78125 74.21875 
Q 42.671875 74.21875 48.875 69.140625 
Q 55.078125 64.0625 55.078125 55.328125 
Q 55.078125 49.078125 51.53125 44.71875 
Q 48 40.375 41.703125 38.8125 
Q 48.828125 37.15625 52.796875 32.3125 
Q 56.78125 27.484375 56.78125 20.515625 
Q 56.78125 9.90625 50.3125 4.234375 
Q 43.84375 -1.421875 31.78125 -1.421875 
Q 19.734375 -1.421875 13.25 4.234375 
Q 6.78125 9.90625 6.78125 20.515625 
Q 6.78125 27.484375 10.78125 32.3125 
Q 14.796875 37.15625 21.921875 38.8125 
M 18.3125 54.390625 
Q 18.3125 48.734375 21.84375 45.5625 
Q 25.390625 42.390625 31.78125 42.390625 
Q 38.140625 42.390625 41.71875 45.5625 
Q 45.3125 48.734375 45.3125 54.390625 
Q 45.3125 60.0625 41.71875 63.234375 
Q 38.140625 66.40625 31.78125 66.40625 
Q 25.390625 66.40625 21.84375 63.234375 
Q 18.3125 60.0625 18.3125 54.390625 
" id="BitstreamVeraSans-Roman-38"/>
      </defs>
      <g transform="translate(61.779375 170.605777277)scale(0.36 -0.36)">
       <use xlink:href="#BitstreamVeraSans-Roman-38"/>
       <use x="63.623046875" xlink:href="#BitstreamVeraSans-Roman-30"/>
       <use x="127.24609375" xlink:href="#BitstreamVeraSans-Roman-25"/>
      </g>
     </g>
    </g>
    <g id="ytick_6">
     <g id="line2d_20">
      <path clip-path="url(#p27bb49a6e9)" d="M 149.795 79.477342 
L 512.357948 79.477342 
" style="fill:none;stroke:#ffffff;stroke-dasharray:6.000000,6.000000;stroke-dashoffset:0.0;stroke-width:2.0;"/>
     </g>
     <g id="line2d_21">
      <g>
       <use style="stroke:#000000;stroke-width:0.5;" x="149.795" xlink:href="#mc7c15cf7a2" y="79.4773424255"/>
      </g>
     </g>
     <g id="line2d_22">
      <g>
       <use style="stroke:#000000;stroke-width:0.5;" x="512.357948234" xlink:href="#m368bce83df" y="79.4773424255"/>
      </g>
     </g>
     <g id="text_8">
      <!-- 100% -->
      <defs>
       <path d="M 12.40625 8.296875 
L 28.515625 8.296875 
L 28.515625 63.921875 
L 10.984375 60.40625 
L 10.984375 69.390625 
L 28.421875 72.90625 
L 38.28125 72.90625 
L 38.28125 8.296875 
L 54.390625 8.296875 
L 54.390625 0 
L 12.40625 0 
z
" id="BitstreamVeraSans-Roman-31"/>
      </defs>
      <g transform="translate(38.874375 89.4110924255)scale(0.36 -0.36)">
       <use xlink:href="#BitstreamVeraSans-Roman-31"/>
       <use x="63.623046875" xlink:href="#BitstreamVeraSans-Roman-30"/>
       <use x="127.24609375" xlink:href="#BitstreamVeraSans-Roman-30"/>
       <use x="190.869140625" xlink:href="#BitstreamVeraSans-Roman-25"/>
      </g>
     </g>
    </g>
   </g>
   <g id="text_9">
    <!-- 0.09% -->
    <defs>
     <path d="M 10.984375 1.515625 
L 10.984375 10.5 
Q 14.703125 8.734375 18.5 7.8125 
Q 22.3125 6.890625 25.984375 6.890625 
Q 35.75 6.890625 40.890625 13.453125 
Q 46.046875 20.015625 46.78125 33.40625 
Q 43.953125 29.203125 39.59375 26.953125 
Q 35.25 24.703125 29.984375 24.703125 
Q 19.046875 24.703125 12.671875 31.3125 
Q 6.296875 37.9375 6.296875 49.421875 
Q 6.296875 60.640625 12.9375 67.421875 
Q 19.578125 74.21875 30.609375 74.21875 
Q 43.265625 74.21875 49.921875 64.515625 
Q 56.59375 54.828125 56.59375 36.375 
Q 56.59375 19.140625 48.40625 8.859375 
Q 40.234375 -1.421875 26.421875 -1.421875 
Q 22.703125 -1.421875 18.890625 -0.6875 
Q 15.09375 0.046875 10.984375 1.515625 
M 30.609375 32.421875 
Q 37.25 32.421875 41.125 36.953125 
Q 45.015625 41.5 45.015625 49.421875 
Q 45.015625 57.28125 41.125 61.84375 
Q 37.25 66.40625 30.609375 66.40625 
Q 23.96875 66.40625 20.09375 61.84375 
Q 16.21875 57.28125 16.21875 49.421875 
Q 16.21875 41.5 20.09375 36.953125 
Q 23.96875 32.421875 30.609375 32.421875 
" id="BitstreamVeraSans-Roman-39"/>
     <path d="M 10.6875 12.40625 
L 21 12.40625 
L 21 0 
L 10.6875 0 
z
" id="BitstreamVeraSans-Roman-2e"/>
    </defs>
    <g transform="translate(198.597356552 478.896529305)scale(0.2 -0.2)">
     <use xlink:href="#BitstreamVeraSans-Roman-30"/>
     <use x="63.623046875" xlink:href="#BitstreamVeraSans-Roman-2e"/>
     <use x="95.41015625" xlink:href="#BitstreamVeraSans-Roman-30"/>
     <use x="159.033203125" xlink:href="#BitstreamVeraSans-Roman-39"/>
     <use x="222.65625" xlink:href="#BitstreamVeraSans-Roman-25"/>
    </g>
   </g>
   <g id="text_10">
    <!-- 99.91% -->
    <g transform="translate(393.658716682 73.6530955587)scale(0.2 -0.2)">
     <use xlink:href="#BitstreamVeraSans-Roman-39"/>
     <use x="63.623046875" xlink:href="#BitstreamVeraSans-Roman-39"/>
     <use x="127.24609375" xlink:href="#BitstreamVeraSans-Roman-2e"/>
     <use x="159.033203125" xlink:href="#BitstreamVeraSans-Roman-39"/>
     <use x="222.65625" xlink:href="#BitstreamVeraSans-Roman-31"/>
     <use x="286.279296875" xlink:href="#BitstreamVeraSans-Roman-25"/>
    </g>
   </g>
  </g>
  <g id="axes_2">
   <g id="patch_9">
    <path d="M 670.868207 485.450767 
L 2121.12 485.450767 
L 2121.12 38.88 
L 670.868207 38.88 
z
" style="fill:#f0f0f5;"/>
   </g>
   <g id="patch_10">
    <path clip-path="url(#pb72040ad83)" d="M 791.722523 485.450767 
L 872.292067 485.450767 
L 872.292067 183.956619 
L 791.722523 183.956619 
z
" style="fill:#d3d3d3;stroke:#000000;stroke-linejoin:miter;"/>
   </g>
   <g id="patch_11">
    <path clip-path="url(#pb72040ad83)" d="M 952.861611 485.450767 
L 1033.431155 485.450767 
L 1033.431155 477.056343 
L 952.861611 477.056343 
z
" style="fill:#e2514a;stroke:#000000;stroke-linejoin:miter;"/>
   </g>
   <g id="patch_12">
    <path clip-path="url(#pb72040ad83)" d="M 1114.000699 485.450767 
L 1194.570243 485.450767 
L 1194.570243 479.334059 
L 1114.000699 479.334059 
z
" style="fill:#fca55d;stroke:#000000;stroke-linejoin:miter;"/>
   </g>
   <g id="patch_13">
    <path clip-path="url(#pb72040ad83)" d="M 1275.139787 485.450767 
L 1355.709332 485.450767 
L 1355.709332 482.175271 
L 1275.139787 482.175271 
z
" style="fill:#fee999;stroke:#000000;stroke-linejoin:miter;"/>
   </g>
   <g id="patch_14">
    <path clip-path="url(#pb72040ad83)" d="M 1436.278876 485.450767 
L 1516.84842 485.450767 
L 1516.84842 481.916296 
L 1436.278876 481.916296 
z
" style="fill:#edf8a3;stroke:#000000;stroke-linejoin:miter;"/>
   </g>
   <g id="patch_15">
    <path clip-path="url(#pb72040ad83)" d="M 1597.417964 485.450767 
L 1677.987508 485.450767 
L 1677.987508 482.995141 
L 1597.417964 482.995141 
z
" style="fill:#a2d9a4;stroke:#000000;stroke-linejoin:miter;"/>
   </g>
   <g id="patch_16">
    <path clip-path="url(#pb72040ad83)" d="M 1758.557052 485.450767 
L 1839.126596 485.450767 
L 1839.126596 482.7387 
L 1758.557052 482.7387 
z
" style="fill:#47a0b3;stroke:#000000;stroke-linejoin:miter;"/>
   </g>
   <g id="patch_17">
    <path clip-path="url(#pb72040ad83)" d="M 1919.69614 485.450767 
L 2000.265684 485.450767 
L 2000.265684 407.825277 
L 1919.69614 407.825277 
z
" style="fill:#ffffff;stroke:#000000;stroke-linejoin:miter;"/>
   </g>
   <g id="patch_18">
    <path d="M 670.868207 38.88 
L 2121.12 38.88 
" style="fill:none;stroke:#000000;stroke-linecap:square;stroke-linejoin:miter;"/>
   </g>
   <g id="patch_19">
    <path d="M 2121.12 485.450767 
L 2121.12 38.88 
" style="fill:none;stroke:#000000;stroke-linecap:square;stroke-linejoin:miter;"/>
   </g>
   <g id="patch_20">
    <path d="M 670.868207 485.450767 
L 2121.12 485.450767 
" style="fill:none;stroke:#000000;stroke-linecap:square;stroke-linejoin:miter;"/>
   </g>
   <g id="patch_21">
    <path d="M 670.868207 485.450767 
L 670.868207 38.88 
" style="fill:none;stroke:#000000;stroke-linecap:square;stroke-linejoin:miter;"/>
   </g>
   <g id="matplotlib.axis_3">
    <g id="xtick_3">
     <g id="line2d_23">
      <g>
       <use style="stroke:#000000;stroke-width:0.5;" x="832.007295167" xlink:href="#m30404e96f5" y="485.450766681"/>
      </g>
     </g>
     <g id="line2d_24">
      <g>
       <use style="stroke:#000000;stroke-width:0.5;" x="832.007295167" xlink:href="#m79207e0111" y="38.88"/>
      </g>
     </g>
     <g id="text_11">
      <!-- no-hit -->
      <defs>
       <path d="M 18.3125 70.21875 
L 18.3125 54.6875 
L 36.8125 54.6875 
L 36.8125 47.703125 
L 18.3125 47.703125 
L 18.3125 18.015625 
Q 18.3125 11.328125 20.140625 9.421875 
Q 21.96875 7.515625 27.59375 7.515625 
L 36.8125 7.515625 
L 36.8125 0 
L 27.59375 0 
Q 17.1875 0 13.234375 3.875 
Q 9.28125 7.765625 9.28125 18.015625 
L 9.28125 47.703125 
L 2.6875 47.703125 
L 2.6875 54.6875 
L 9.28125 54.6875 
L 9.28125 70.21875 
z
" id="BitstreamVeraSans-Roman-74"/>
       <path d="M 30.609375 48.390625 
Q 23.390625 48.390625 19.1875 42.75 
Q 14.984375 37.109375 14.984375 27.296875 
Q 14.984375 17.484375 19.15625 11.84375 
Q 23.34375 6.203125 30.609375 6.203125 
Q 37.796875 6.203125 41.984375 11.859375 
Q 46.1875 17.53125 46.1875 27.296875 
Q 46.1875 37.015625 41.984375 42.703125 
Q 37.796875 48.390625 30.609375 48.390625 
M 30.609375 56 
Q 42.328125 56 49.015625 48.375 
Q 55.71875 40.765625 55.71875 27.296875 
Q 55.71875 13.875 49.015625 6.21875 
Q 42.328125 -1.421875 30.609375 -1.421875 
Q 18.84375 -1.421875 12.171875 6.21875 
Q 5.515625 13.875 5.515625 27.296875 
Q 5.515625 40.765625 12.171875 48.375 
Q 18.84375 56 30.609375 56 
" id="BitstreamVeraSans-Roman-6f"/>
       <path d="M 9.421875 54.6875 
L 18.40625 54.6875 
L 18.40625 0 
L 9.421875 0 
z
M 9.421875 75.984375 
L 18.40625 75.984375 
L 18.40625 64.59375 
L 9.421875 64.59375 
z
" id="BitstreamVeraSans-Roman-69"/>
       <path d="M 4.890625 31.390625 
L 31.203125 31.390625 
L 31.203125 23.390625 
L 4.890625 23.390625 
z
" id="BitstreamVeraSans-Roman-2d"/>
       <path d="M 54.890625 33.015625 
L 54.890625 0 
L 45.90625 0 
L 45.90625 32.71875 
Q 45.90625 40.484375 42.875 44.328125 
Q 39.84375 48.1875 33.796875 48.1875 
Q 26.515625 48.1875 22.3125 43.546875 
Q 18.109375 38.921875 18.109375 30.90625 
L 18.109375 0 
L 9.078125 0 
L 9.078125 75.984375 
L 18.109375 75.984375 
L 18.109375 46.1875 
Q 21.34375 51.125 25.703125 53.5625 
Q 30.078125 56 35.796875 56 
Q 45.21875 56 50.046875 50.171875 
Q 54.890625 44.34375 54.890625 33.015625 
" id="BitstreamVeraSans-Roman-68"/>
      </defs>
      <g transform="translate(815.331728529 545.35240442)rotate(-45.0)scale(0.2 -0.2)">
       <use xlink:href="#BitstreamVeraSans-Roman-6e"/>
       <use x="63.37890625" xlink:href="#BitstreamVeraSans-Roman-6f"/>
       <use x="124.576171875" xlink:href="#BitstreamVeraSans-Roman-2d"/>
       <use x="160.66015625" xlink:href="#BitstreamVeraSans-Roman-68"/>
       <use x="224.0390625" xlink:href="#BitstreamVeraSans-Roman-69"/>
       <use x="251.822265625" xlink:href="#BitstreamVeraSans-Roman-74"/>
      </g>
     </g>
    </g>
    <g id="xtick_4">
     <g id="line2d_25">
      <g>
       <use style="stroke:#000000;stroke-width:0.5;" x="993.146383272" xlink:href="#m30404e96f5" y="485.450766681"/>
      </g>
     </g>
     <g id="line2d_26">
      <g>
       <use style="stroke:#000000;stroke-width:0.5;" x="993.146383272" xlink:href="#m79207e0111" y="38.88"/>
      </g>
     </g>
     <g id="text_12">
      <!-- Phytophthora infestans -->
      <defs>
       <path d="M 19.671875 64.796875 
L 19.671875 37.40625 
L 32.078125 37.40625 
Q 38.96875 37.40625 42.71875 40.96875 
Q 46.484375 44.53125 46.484375 51.125 
Q 46.484375 57.671875 42.71875 61.234375 
Q 38.96875 64.796875 32.078125 64.796875 
z
M 9.8125 72.90625 
L 32.078125 72.90625 
Q 44.34375 72.90625 50.609375 67.359375 
Q 56.890625 61.8125 56.890625 51.125 
Q 56.890625 40.328125 50.609375 34.8125 
Q 44.34375 29.296875 32.078125 29.296875 
L 19.671875 29.296875 
L 19.671875 0 
L 9.8125 0 
z
" id="BitstreamVeraSans-Roman-50"/>
       <path d="M 37.109375 75.984375 
L 37.109375 68.5 
L 28.515625 68.5 
Q 23.6875 68.5 21.796875 66.546875 
Q 19.921875 64.59375 19.921875 59.515625 
L 19.921875 54.6875 
L 34.71875 54.6875 
L 34.71875 47.703125 
L 19.921875 47.703125 
L 19.921875 0 
L 10.890625 0 
L 10.890625 47.703125 
L 2.296875 47.703125 
L 2.296875 54.6875 
L 10.890625 54.6875 
L 10.890625 58.5 
Q 10.890625 67.625 15.140625 71.796875 
Q 19.390625 75.984375 28.609375 75.984375 
z
" id="BitstreamVeraSans-Roman-66"/>
       <path d="M 41.109375 46.296875 
Q 39.59375 47.171875 37.8125 47.578125 
Q 36.03125 48 33.890625 48 
Q 26.265625 48 22.1875 43.046875 
Q 18.109375 38.09375 18.109375 28.8125 
L 18.109375 0 
L 9.078125 0 
L 9.078125 54.6875 
L 18.109375 54.6875 
L 18.109375 46.1875 
Q 20.953125 51.171875 25.484375 53.578125 
Q 30.03125 56 36.53125 56 
Q 37.453125 56 38.578125 55.875 
Q 39.703125 55.765625 41.0625 55.515625 
z
" id="BitstreamVeraSans-Roman-72"/>
      </defs>
      <g transform="translate(914.742604344 668.808828998)rotate(-45.0)scale(0.2 -0.2)">
       <use xlink:href="#BitstreamVeraSans-Roman-50"/>
       <use x="60.302734375" xlink:href="#BitstreamVeraSans-Roman-68"/>
       <use x="123.681640625" xlink:href="#BitstreamVeraSans-Roman-79"/>
       <use x="182.861328125" xlink:href="#BitstreamVeraSans-Roman-74"/>
       <use x="222.0703125" xlink:href="#BitstreamVeraSans-Roman-6f"/>
       <use x="283.251953125" xlink:href="#BitstreamVeraSans-Roman-70"/>
       <use x="346.728515625" xlink:href="#BitstreamVeraSans-Roman-68"/>
       <use x="410.107421875" xlink:href="#BitstreamVeraSans-Roman-74"/>
       <use x="449.31640625" xlink:href="#BitstreamVeraSans-Roman-68"/>
       <use x="512.6953125" xlink:href="#BitstreamVeraSans-Roman-6f"/>
       <use x="573.876953125" xlink:href="#BitstreamVeraSans-Roman-72"/>
       <use x="614.990234375" xlink:href="#BitstreamVeraSans-Roman-61"/>
       <use x="676.26953125" xlink:href="#BitstreamVeraSans-Roman-20"/>
       <use x="708.056640625" xlink:href="#BitstreamVeraSans-Roman-69"/>
       <use x="735.83984375" xlink:href="#BitstreamVeraSans-Roman-6e"/>
       <use x="799.21875" xlink:href="#BitstreamVeraSans-Roman-66"/>
       <use x="834.423828125" xlink:href="#BitstreamVeraSans-Roman-65"/>
       <use x="895.947265625" xlink:href="#BitstreamVeraSans-Roman-73"/>
       <use x="948.046875" xlink:href="#BitstreamVeraSans-Roman-74"/>
       <use x="987.255859375" xlink:href="#BitstreamVeraSans-Roman-61"/>
       <use x="1048.53515625" xlink:href="#BitstreamVeraSans-Roman-6e"/>
       <use x="1111.9140625" xlink:href="#BitstreamVeraSans-Roman-73"/>
      </g>
     </g>
    </g>
    <g id="xtick_5">
     <g id="line2d_27">
      <g>
       <use style="stroke:#000000;stroke-width:0.5;" x="1154.28547138" xlink:href="#m30404e96f5" y="485.450766681"/>
      </g>
     </g>
     <g id="line2d_28">
      <g>
       <use style="stroke:#000000;stroke-width:0.5;" x="1154.28547138" xlink:href="#m79207e0111" y="38.88"/>
      </g>
     </g>
     <g id="text_13">
      <!-- Albugo laibachii -->
      <defs>
       <path d="M 45.40625 27.984375 
Q 45.40625 37.75 41.375 43.109375 
Q 37.359375 48.484375 30.078125 48.484375 
Q 22.859375 48.484375 18.828125 43.109375 
Q 14.796875 37.75 14.796875 27.984375 
Q 14.796875 18.265625 18.828125 12.890625 
Q 22.859375 7.515625 30.078125 7.515625 
Q 37.359375 7.515625 41.375 12.890625 
Q 45.40625 18.265625 45.40625 27.984375 
M 54.390625 6.78125 
Q 54.390625 -7.171875 48.1875 -13.984375 
Q 42 -20.796875 29.203125 -20.796875 
Q 24.46875 -20.796875 20.265625 -20.09375 
Q 16.0625 -19.390625 12.109375 -17.921875 
L 12.109375 -9.1875 
Q 16.0625 -11.328125 19.921875 -12.34375 
Q 23.78125 -13.375 27.78125 -13.375 
Q 36.625 -13.375 41.015625 -8.765625 
Q 45.40625 -4.15625 45.40625 5.171875 
L 45.40625 9.625 
Q 42.625 4.78125 38.28125 2.390625 
Q 33.9375 0 27.875 0 
Q 17.828125 0 11.671875 7.65625 
Q 5.515625 15.328125 5.515625 27.984375 
Q 5.515625 40.671875 11.671875 48.328125 
Q 17.828125 56 27.875 56 
Q 33.9375 56 38.28125 53.609375 
Q 42.625 51.21875 45.40625 46.390625 
L 45.40625 54.6875 
L 54.390625 54.6875 
z
" id="BitstreamVeraSans-Roman-67"/>
       <path d="M 8.5 21.578125 
L 8.5 54.6875 
L 17.484375 54.6875 
L 17.484375 21.921875 
Q 17.484375 14.15625 20.5 10.265625 
Q 23.53125 6.390625 29.59375 6.390625 
Q 36.859375 6.390625 41.078125 11.03125 
Q 45.3125 15.671875 45.3125 23.6875 
L 45.3125 54.6875 
L 54.296875 54.6875 
L 54.296875 0 
L 45.3125 0 
L 45.3125 8.40625 
Q 42.046875 3.421875 37.71875 1 
Q 33.40625 -1.421875 27.6875 -1.421875 
Q 18.265625 -1.421875 13.375 4.4375 
Q 8.5 10.296875 8.5 21.578125 
" id="BitstreamVeraSans-Roman-75"/>
       <path d="M 48.78125 52.59375 
L 48.78125 44.1875 
Q 44.96875 46.296875 41.140625 47.34375 
Q 37.3125 48.390625 33.40625 48.390625 
Q 24.65625 48.390625 19.8125 42.84375 
Q 14.984375 37.3125 14.984375 27.296875 
Q 14.984375 17.28125 19.8125 11.734375 
Q 24.65625 6.203125 33.40625 6.203125 
Q 37.3125 6.203125 41.140625 7.25 
Q 44.96875 8.296875 48.78125 10.40625 
L 48.78125 2.09375 
Q 45.015625 0.34375 40.984375 -0.53125 
Q 36.96875 -1.421875 32.421875 -1.421875 
Q 20.0625 -1.421875 12.78125 6.34375 
Q 5.515625 14.109375 5.515625 27.296875 
Q 5.515625 40.671875 12.859375 48.328125 
Q 20.21875 56 33.015625 56 
Q 37.15625 56 41.109375 55.140625 
Q 45.0625 54.296875 48.78125 52.59375 
" id="BitstreamVeraSans-Roman-63"/>
       <path d="M 34.1875 63.1875 
L 20.796875 26.90625 
L 47.609375 26.90625 
z
M 28.609375 72.90625 
L 39.796875 72.90625 
L 67.578125 0 
L 57.328125 0 
L 50.6875 18.703125 
L 17.828125 18.703125 
L 11.1875 0 
L 0.78125 0 
z
" id="BitstreamVeraSans-Roman-41"/>
      </defs>
      <g transform="translate(1101.97061811 616.630977672)rotate(-45.0)scale(0.2 -0.2)">
       <use xlink:href="#BitstreamVeraSans-Roman-41"/>
       <use x="68.408203125" xlink:href="#BitstreamVeraSans-Roman-6c"/>
       <use x="96.19140625" xlink:href="#BitstreamVeraSans-Roman-62"/>
       <use x="159.66796875" xlink:href="#BitstreamVeraSans-Roman-75"/>
       <use x="223.046875" xlink:href="#BitstreamVeraSans-Roman-67"/>
       <use x="286.5234375" xlink:href="#BitstreamVeraSans-Roman-6f"/>
       <use x="347.705078125" xlink:href="#BitstreamVeraSans-Roman-20"/>
       <use x="379.4921875" xlink:href="#BitstreamVeraSans-Roman-6c"/>
       <use x="407.275390625" xlink:href="#BitstreamVeraSans-Roman-61"/>
       <use x="468.5546875" xlink:href="#BitstreamVeraSans-Roman-69"/>
       <use x="496.337890625" xlink:href="#BitstreamVeraSans-Roman-62"/>
       <use x="559.814453125" xlink:href="#BitstreamVeraSans-Roman-61"/>
       <use x="621.09375" xlink:href="#BitstreamVeraSans-Roman-63"/>
       <use x="676.07421875" xlink:href="#BitstreamVeraSans-Roman-68"/>
       <use x="739.453125" xlink:href="#BitstreamVeraSans-Roman-69"/>
       <use x="767.236328125" xlink:href="#BitstreamVeraSans-Roman-69"/>
      </g>
     </g>
    </g>
    <g id="xtick_6">
     <g id="line2d_29">
      <g>
       <use style="stroke:#000000;stroke-width:0.5;" x="1315.42455948" xlink:href="#m30404e96f5" y="485.450766681"/>
      </g>
     </g>
     <g id="line2d_30">
      <g>
       <use style="stroke:#000000;stroke-width:0.5;" x="1315.42455948" xlink:href="#m79207e0111" y="38.88"/>
      </g>
     </g>
     <g id="text_14">
      <!-- unresolved -->
      <defs>
       <path d="M 2.984375 54.6875 
L 12.5 54.6875 
L 29.59375 8.796875 
L 46.6875 54.6875 
L 56.203125 54.6875 
L 35.6875 0 
L 23.484375 0 
z
" id="BitstreamVeraSans-Roman-76"/>
      </defs>
      <g transform="translate(1280.10899518 582.632399749)rotate(-45.0)scale(0.2 -0.2)">
       <use xlink:href="#BitstreamVeraSans-Roman-75"/>
       <use x="63.37890625" xlink:href="#BitstreamVeraSans-Roman-6e"/>
       <use x="126.7578125" xlink:href="#BitstreamVeraSans-Roman-72"/>
       <use x="167.83984375" xlink:href="#BitstreamVeraSans-Roman-65"/>
       <use x="229.36328125" xlink:href="#BitstreamVeraSans-Roman-73"/>
       <use x="281.462890625" xlink:href="#BitstreamVeraSans-Roman-6f"/>
       <use x="342.64453125" xlink:href="#BitstreamVeraSans-Roman-6c"/>
       <use x="370.427734375" xlink:href="#BitstreamVeraSans-Roman-76"/>
       <use x="429.607421875" xlink:href="#BitstreamVeraSans-Roman-65"/>
       <use x="491.130859375" xlink:href="#BitstreamVeraSans-Roman-64"/>
      </g>
     </g>
    </g>
    <g id="xtick_7">
     <g id="line2d_31">
      <g>
       <use style="stroke:#000000;stroke-width:0.5;" x="1476.56364758" xlink:href="#m30404e96f5" y="485.450766681"/>
      </g>
     </g>
     <g id="line2d_32">
      <g>
       <use style="stroke:#000000;stroke-width:0.5;" x="1476.56364758" xlink:href="#m79207e0111" y="38.88"/>
      </g>
     </g>
     <g id="text_15">
      <!-- Oryza sativa -->
      <defs>
       <path d="M 39.40625 66.21875 
Q 28.65625 66.21875 22.328125 58.203125 
Q 16.015625 50.203125 16.015625 36.375 
Q 16.015625 22.609375 22.328125 14.59375 
Q 28.65625 6.59375 39.40625 6.59375 
Q 50.140625 6.59375 56.421875 14.59375 
Q 62.703125 22.609375 62.703125 36.375 
Q 62.703125 50.203125 56.421875 58.203125 
Q 50.140625 66.21875 39.40625 66.21875 
M 39.40625 74.21875 
Q 54.734375 74.21875 63.90625 63.9375 
Q 73.09375 53.65625 73.09375 36.375 
Q 73.09375 19.140625 63.90625 8.859375 
Q 54.734375 -1.421875 39.40625 -1.421875 
Q 24.03125 -1.421875 14.8125 8.828125 
Q 5.609375 19.09375 5.609375 36.375 
Q 5.609375 53.65625 14.8125 63.9375 
Q 24.03125 74.21875 39.40625 74.21875 
" id="BitstreamVeraSans-Roman-4f"/>
       <path d="M 5.515625 54.6875 
L 48.1875 54.6875 
L 48.1875 46.484375 
L 14.40625 7.171875 
L 48.1875 7.171875 
L 48.1875 0 
L 4.296875 0 
L 4.296875 8.203125 
L 38.09375 47.515625 
L 5.515625 47.515625 
z
" id="BitstreamVeraSans-Roman-7a"/>
      </defs>
      <g transform="translate(1436.24419795 592.640170412)rotate(-45.0)scale(0.2 -0.2)">
       <use xlink:href="#BitstreamVeraSans-Roman-4f"/>
       <use x="78.7109375" xlink:href="#BitstreamVeraSans-Roman-72"/>
       <use x="119.82421875" xlink:href="#BitstreamVeraSans-Roman-79"/>
       <use x="179.00390625" xlink:href="#BitstreamVeraSans-Roman-7a"/>
       <use x="231.494140625" xlink:href="#BitstreamVeraSans-Roman-61"/>
       <use x="292.7734375" xlink:href="#BitstreamVeraSans-Roman-20"/>
       <use x="324.560546875" xlink:href="#BitstreamVeraSans-Roman-73"/>
       <use x="376.66015625" xlink:href="#BitstreamVeraSans-Roman-61"/>
       <use x="437.939453125" xlink:href="#BitstreamVeraSans-Roman-74"/>
       <use x="477.1484375" xlink:href="#BitstreamVeraSans-Roman-69"/>
       <use x="504.931640625" xlink:href="#BitstreamVeraSans-Roman-76"/>
       <use x="564.111328125" xlink:href="#BitstreamVeraSans-Roman-61"/>
      </g>
     </g>
    </g>
    <g id="xtick_8">
     <g id="line2d_33">
      <g>
       <use style="stroke:#000000;stroke-width:0.5;" x="1637.70273569" xlink:href="#m30404e96f5" y="485.450766681"/>
      </g>
     </g>
     <g id="line2d_34">
      <g>
       <use style="stroke:#000000;stroke-width:0.5;" x="1637.70273569" xlink:href="#m79207e0111" y="38.88"/>
      </g>
     </g>
     <g id="text_16">
      <!-- Symbiodinium kawagutii -->
      <defs>
       <path d="M 4.203125 54.6875 
L 13.1875 54.6875 
L 24.421875 12.015625 
L 35.59375 54.6875 
L 46.1875 54.6875 
L 57.421875 12.015625 
L 68.609375 54.6875 
L 77.59375 54.6875 
L 63.28125 0 
L 52.6875 0 
L 40.921875 44.828125 
L 29.109375 0 
L 18.5 0 
z
" id="BitstreamVeraSans-Roman-77"/>
       <path d="M 53.515625 70.515625 
L 53.515625 60.890625 
Q 47.90625 63.578125 42.921875 64.890625 
Q 37.9375 66.21875 33.296875 66.21875 
Q 25.25 66.21875 20.875 63.09375 
Q 16.5 59.96875 16.5 54.203125 
Q 16.5 49.359375 19.40625 46.890625 
Q 22.3125 44.4375 30.421875 42.921875 
L 36.375 41.703125 
Q 47.40625 39.59375 52.65625 34.296875 
Q 57.90625 29 57.90625 20.125 
Q 57.90625 9.515625 50.796875 4.046875 
Q 43.703125 -1.421875 29.984375 -1.421875 
Q 24.8125 -1.421875 18.96875 -0.25 
Q 13.140625 0.921875 6.890625 3.21875 
L 6.890625 13.375 
Q 12.890625 10.015625 18.65625 8.296875 
Q 24.421875 6.59375 29.984375 6.59375 
Q 38.421875 6.59375 43.015625 9.90625 
Q 47.609375 13.234375 47.609375 19.390625 
Q 47.609375 24.75 44.3125 27.78125 
Q 41.015625 30.8125 33.5 32.328125 
L 27.484375 33.5 
Q 16.453125 35.6875 11.515625 40.375 
Q 6.59375 45.0625 6.59375 53.421875 
Q 6.59375 63.09375 13.40625 68.65625 
Q 20.21875 74.21875 32.171875 74.21875 
Q 37.3125 74.21875 42.625 73.28125 
Q 47.953125 72.359375 53.515625 70.515625 
" id="BitstreamVeraSans-Roman-53"/>
       <path d="M 9.078125 75.984375 
L 18.109375 75.984375 
L 18.109375 31.109375 
L 44.921875 54.6875 
L 56.390625 54.6875 
L 27.390625 29.109375 
L 57.625 0 
L 45.90625 0 
L 18.109375 26.703125 
L 18.109375 0 
L 9.078125 0 
z
" id="BitstreamVeraSans-Roman-6b"/>
      </defs>
      <g transform="translate(1554.53371997 678.339302583)rotate(-45.0)scale(0.2 -0.2)">
       <use xlink:href="#BitstreamVeraSans-Roman-53"/>
       <use x="63.4765625" xlink:href="#BitstreamVeraSans-Roman-79"/>
       <use x="122.65625" xlink:href="#BitstreamVeraSans-Roman-6d"/>
       <use x="220.068359375" xlink:href="#BitstreamVeraSans-Roman-62"/>
       <use x="283.544921875" xlink:href="#BitstreamVeraSans-Roman-69"/>
       <use x="311.328125" xlink:href="#BitstreamVeraSans-Roman-6f"/>
       <use x="372.509765625" xlink:href="#BitstreamVeraSans-Roman-64"/>
       <use x="435.986328125" xlink:href="#BitstreamVeraSans-Roman-69"/>
       <use x="463.76953125" xlink:href="#BitstreamVeraSans-Roman-6e"/>
       <use x="527.1484375" xlink:href="#BitstreamVeraSans-Roman-69"/>
       <use x="554.931640625" xlink:href="#BitstreamVeraSans-Roman-75"/>
       <use x="618.310546875" xlink:href="#BitstreamVeraSans-Roman-6d"/>
       <use x="715.72265625" xlink:href="#BitstreamVeraSans-Roman-20"/>
       <use x="747.509765625" xlink:href="#BitstreamVeraSans-Roman-6b"/>
       <use x="805.404296875" xlink:href="#BitstreamVeraSans-Roman-61"/>
       <use x="866.68359375" xlink:href="#BitstreamVeraSans-Roman-77"/>
       <use x="948.470703125" xlink:href="#BitstreamVeraSans-Roman-61"/>
       <use x="1009.75" xlink:href="#BitstreamVeraSans-Roman-67"/>
       <use x="1073.2265625" xlink:href="#BitstreamVeraSans-Roman-75"/>
       <use x="1136.60546875" xlink:href="#BitstreamVeraSans-Roman-74"/>
       <use x="1175.81445312" xlink:href="#BitstreamVeraSans-Roman-69"/>
       <use x="1203.59765625" xlink:href="#BitstreamVeraSans-Roman-69"/>
      </g>
     </g>
    </g>
    <g id="xtick_9">
     <g id="line2d_35">
      <g>
       <use style="stroke:#000000;stroke-width:0.5;" x="1798.84182379" xlink:href="#m30404e96f5" y="485.450766681"/>
      </g>
     </g>
     <g id="line2d_36">
      <g>
       <use style="stroke:#000000;stroke-width:0.5;" x="1798.84182379" xlink:href="#m79207e0111" y="38.88"/>
      </g>
     </g>
     <g id="text_17">
      <!-- Arabidopsis thaliana -->
      <g transform="translate(1730.6667864 648.351345935)rotate(-45.0)scale(0.2 -0.2)">
       <use xlink:href="#BitstreamVeraSans-Roman-41"/>
       <use x="68.408203125" xlink:href="#BitstreamVeraSans-Roman-72"/>
       <use x="109.521484375" xlink:href="#BitstreamVeraSans-Roman-61"/>
       <use x="170.80078125" xlink:href="#BitstreamVeraSans-Roman-62"/>
       <use x="234.27734375" xlink:href="#BitstreamVeraSans-Roman-69"/>
       <use x="262.060546875" xlink:href="#BitstreamVeraSans-Roman-64"/>
       <use x="325.537109375" xlink:href="#BitstreamVeraSans-Roman-6f"/>
       <use x="386.71875" xlink:href="#BitstreamVeraSans-Roman-70"/>
       <use x="450.1953125" xlink:href="#BitstreamVeraSans-Roman-73"/>
       <use x="502.294921875" xlink:href="#BitstreamVeraSans-Roman-69"/>
       <use x="530.078125" xlink:href="#BitstreamVeraSans-Roman-73"/>
       <use x="582.177734375" xlink:href="#BitstreamVeraSans-Roman-20"/>
       <use x="613.96484375" xlink:href="#BitstreamVeraSans-Roman-74"/>
       <use x="653.173828125" xlink:href="#BitstreamVeraSans-Roman-68"/>
       <use x="716.552734375" xlink:href="#BitstreamVeraSans-Roman-61"/>
       <use x="777.83203125" xlink:href="#BitstreamVeraSans-Roman-6c"/>
       <use x="805.615234375" xlink:href="#BitstreamVeraSans-Roman-69"/>
       <use x="833.3984375" xlink:href="#BitstreamVeraSans-Roman-61"/>
       <use x="894.677734375" xlink:href="#BitstreamVeraSans-Roman-6e"/>
       <use x="958.056640625" xlink:href="#BitstreamVeraSans-Roman-61"/>
      </g>
     </g>
    </g>
    <g id="xtick_10">
     <g id="line2d_37">
      <g>
       <use style="stroke:#000000;stroke-width:0.5;" x="1959.9809119" xlink:href="#m30404e96f5" y="485.450766681"/>
      </g>
     </g>
     <g id="line2d_38">
      <g>
       <use style="stroke:#000000;stroke-width:0.5;" x="1959.9809119" xlink:href="#m79207e0111" y="38.88"/>
      </g>
     </g>
     <g id="text_18">
      <!-- other -->
      <g transform="translate(1945.04549085 541.872113231)rotate(-45.0)scale(0.2 -0.2)">
       <use xlink:href="#BitstreamVeraSans-Roman-6f"/>
       <use x="61.181640625" xlink:href="#BitstreamVeraSans-Roman-74"/>
       <use x="100.390625" xlink:href="#BitstreamVeraSans-Roman-68"/>
       <use x="163.76953125" xlink:href="#BitstreamVeraSans-Roman-65"/>
       <use x="225.29296875" xlink:href="#BitstreamVeraSans-Roman-72"/>
      </g>
     </g>
    </g>
   </g>
   <g id="matplotlib.axis_4">
    <g id="ytick_7">
     <g id="line2d_39">
      <path clip-path="url(#pb72040ad83)" d="M 670.868207 485.450767 
L 2121.12 485.450767 
" style="fill:none;stroke:#ffffff;stroke-dasharray:6.000000,6.000000;stroke-dashoffset:0.0;stroke-width:2.0;"/>
     </g>
     <g id="line2d_40">
      <g>
       <use style="stroke:#000000;stroke-width:0.5;" x="670.868207063" xlink:href="#mc7c15cf7a2" y="485.450766681"/>
      </g>
     </g>
     <g id="line2d_41">
      <g>
       <use style="stroke:#000000;stroke-width:0.5;" x="2121.12" xlink:href="#m368bce83df" y="485.450766681"/>
      </g>
     </g>
     <g id="text_19">
      <!-- 0% -->
      <g transform="translate(605.757582063 495.384516681)scale(0.36 -0.36)">
       <use xlink:href="#BitstreamVeraSans-Roman-30"/>
       <use x="63.623046875" xlink:href="#BitstreamVeraSans-Roman-25"/>
      </g>
     </g>
    </g>
    <g id="ytick_8">
     <g id="line2d_42">
      <path clip-path="url(#pb72040ad83)" d="M 670.868207 404.256082 
L 2121.12 404.256082 
" style="fill:none;stroke:#ffffff;stroke-dasharray:6.000000,6.000000;stroke-dashoffset:0.0;stroke-width:2.0;"/>
     </g>
     <g id="line2d_43">
      <g>
       <use style="stroke:#000000;stroke-width:0.5;" x="670.868207063" xlink:href="#mc7c15cf7a2" y="404.25608183"/>
      </g>
     </g>
     <g id="line2d_44">
      <g>
       <use style="stroke:#000000;stroke-width:0.5;" x="2121.12" xlink:href="#m368bce83df" y="404.25608183"/>
      </g>
     </g>
     <g id="text_20">
      <!-- 20% -->
      <g transform="translate(582.852582063 414.18983183)scale(0.36 -0.36)">
       <use xlink:href="#BitstreamVeraSans-Roman-32"/>
       <use x="63.623046875" xlink:href="#BitstreamVeraSans-Roman-30"/>
       <use x="127.24609375" xlink:href="#BitstreamVeraSans-Roman-25"/>
      </g>
     </g>
    </g>
    <g id="ytick_9">
     <g id="line2d_45">
      <path clip-path="url(#pb72040ad83)" d="M 670.868207 323.061397 
L 2121.12 323.061397 
" style="fill:none;stroke:#ffffff;stroke-dasharray:6.000000,6.000000;stroke-dashoffset:0.0;stroke-width:2.0;"/>
     </g>
     <g id="line2d_46">
      <g>
       <use style="stroke:#000000;stroke-width:0.5;" x="670.868207063" xlink:href="#mc7c15cf7a2" y="323.061396979"/>
      </g>
     </g>
     <g id="line2d_47">
      <g>
       <use style="stroke:#000000;stroke-width:0.5;" x="2121.12" xlink:href="#m368bce83df" y="323.061396979"/>
      </g>
     </g>
     <g id="text_21">
      <!-- 40% -->
      <g transform="translate(582.852582063 332.995146979)scale(0.36 -0.36)">
       <use xlink:href="#BitstreamVeraSans-Roman-34"/>
       <use x="63.623046875" xlink:href="#BitstreamVeraSans-Roman-30"/>
       <use x="127.24609375" xlink:href="#BitstreamVeraSans-Roman-25"/>
      </g>
     </g>
    </g>
    <g id="ytick_10">
     <g id="line2d_48">
      <path clip-path="url(#pb72040ad83)" d="M 670.868207 241.866712 
L 2121.12 241.866712 
" style="fill:none;stroke:#ffffff;stroke-dasharray:6.000000,6.000000;stroke-dashoffset:0.0;stroke-width:2.0;"/>
     </g>
     <g id="line2d_49">
      <g>
       <use style="stroke:#000000;stroke-width:0.5;" x="670.868207063" xlink:href="#mc7c15cf7a2" y="241.866712128"/>
      </g>
     </g>
     <g id="line2d_50">
      <g>
       <use style="stroke:#000000;stroke-width:0.5;" x="2121.12" xlink:href="#m368bce83df" y="241.866712128"/>
      </g>
     </g>
     <g id="text_22">
      <!-- 60% -->
      <g transform="translate(582.852582063 251.800462128)scale(0.36 -0.36)">
       <use xlink:href="#BitstreamVeraSans-Roman-36"/>
       <use x="63.623046875" xlink:href="#BitstreamVeraSans-Roman-30"/>
       <use x="127.24609375" xlink:href="#BitstreamVeraSans-Roman-25"/>
      </g>
     </g>
    </g>
    <g id="ytick_11">
     <g id="line2d_51">
      <path clip-path="url(#pb72040ad83)" d="M 670.868207 160.672027 
L 2121.12 160.672027 
" style="fill:none;stroke:#ffffff;stroke-dasharray:6.000000,6.000000;stroke-dashoffset:0.0;stroke-width:2.0;"/>
     </g>
     <g id="line2d_52">
      <g>
       <use style="stroke:#000000;stroke-width:0.5;" x="670.868207063" xlink:href="#mc7c15cf7a2" y="160.672027277"/>
      </g>
     </g>
     <g id="line2d_53">
      <g>
       <use style="stroke:#000000;stroke-width:0.5;" x="2121.12" xlink:href="#m368bce83df" y="160.672027277"/>
      </g>
     </g>
     <g id="text_23">
      <!-- 80% -->
      <g transform="translate(582.852582063 170.605777277)scale(0.36 -0.36)">
       <use xlink:href="#BitstreamVeraSans-Roman-38"/>
       <use x="63.623046875" xlink:href="#BitstreamVeraSans-Roman-30"/>
       <use x="127.24609375" xlink:href="#BitstreamVeraSans-Roman-25"/>
      </g>
     </g>
    </g>
    <g id="ytick_12">
     <g id="line2d_54">
      <path clip-path="url(#pb72040ad83)" d="M 670.868207 79.477342 
L 2121.12 79.477342 
" style="fill:none;stroke:#ffffff;stroke-dasharray:6.000000,6.000000;stroke-dashoffset:0.0;stroke-width:2.0;"/>
     </g>
     <g id="line2d_55">
      <g>
       <use style="stroke:#000000;stroke-width:0.5;" x="670.868207063" xlink:href="#mc7c15cf7a2" y="79.4773424255"/>
      </g>
     </g>
     <g id="line2d_56">
      <g>
       <use style="stroke:#000000;stroke-width:0.5;" x="2121.12" xlink:href="#m368bce83df" y="79.4773424255"/>
      </g>
     </g>
     <g id="text_24">
      <!-- 100% -->
      <g transform="translate(559.947582063 89.4110924255)scale(0.36 -0.36)">
       <use xlink:href="#BitstreamVeraSans-Roman-31"/>
       <use x="63.623046875" xlink:href="#BitstreamVeraSans-Roman-30"/>
       <use x="127.24609375" xlink:href="#BitstreamVeraSans-Roman-30"/>
       <use x="190.869140625" xlink:href="#BitstreamVeraSans-Roman-25"/>
      </g>
     </g>
    </g>
   </g>
   <g id="text_25">
    <!-- 74.26% -->
    <defs>
     <path d="M 8.203125 72.90625 
L 55.078125 72.90625 
L 55.078125 68.703125 
L 28.609375 0 
L 18.3125 0 
L 43.21875 64.59375 
L 8.203125 64.59375 
z
" id="BitstreamVeraSans-Roman-37"/>
    </defs>
    <g transform="translate(793.877607667 177.767376512)scale(0.2 -0.2)">
     <use xlink:href="#BitstreamVeraSans-Roman-37"/>
     <use x="63.623046875" xlink:href="#BitstreamVeraSans-Roman-34"/>
     <use x="127.24609375" xlink:href="#BitstreamVeraSans-Roman-2e"/>
     <use x="159.033203125" xlink:href="#BitstreamVeraSans-Roman-32"/>
     <use x="222.65625" xlink:href="#BitstreamVeraSans-Roman-36"/>
     <use x="286.279296875" xlink:href="#BitstreamVeraSans-Roman-25"/>
    </g>
   </g>
   <g id="text_26">
    <!-- 2.07% -->
    <g transform="translate(961.379195772 470.867101054)scale(0.2 -0.2)">
     <use xlink:href="#BitstreamVeraSans-Roman-32"/>
     <use x="63.623046875" xlink:href="#BitstreamVeraSans-Roman-2e"/>
     <use x="95.41015625" xlink:href="#BitstreamVeraSans-Roman-30"/>
     <use x="159.033203125" xlink:href="#BitstreamVeraSans-Roman-37"/>
     <use x="222.65625" xlink:href="#BitstreamVeraSans-Roman-25"/>
    </g>
   </g>
   <g id="text_27">
    <!-- 1.51% -->
    <defs>
     <path d="M 10.796875 72.90625 
L 49.515625 72.90625 
L 49.515625 64.59375 
L 19.828125 64.59375 
L 19.828125 46.734375 
Q 21.96875 47.46875 24.109375 47.828125 
Q 26.265625 48.1875 28.421875 48.1875 
Q 40.625 48.1875 47.75 41.5 
Q 54.890625 34.8125 54.890625 23.390625 
Q 54.890625 11.625 47.5625 5.09375 
Q 40.234375 -1.421875 26.90625 -1.421875 
Q 22.3125 -1.421875 17.546875 -0.640625 
Q 12.796875 0.140625 7.71875 1.703125 
L 7.71875 11.625 
Q 12.109375 9.234375 16.796875 8.0625 
Q 21.484375 6.890625 26.703125 6.890625 
Q 35.15625 6.890625 40.078125 11.328125 
Q 45.015625 15.765625 45.015625 23.390625 
Q 45.015625 31 40.078125 35.4375 
Q 35.15625 39.890625 26.703125 39.890625 
Q 22.75 39.890625 18.8125 39.015625 
Q 14.890625 38.140625 10.796875 36.28125 
z
" id="BitstreamVeraSans-Roman-35"/>
    </defs>
    <g transform="translate(1122.51828388 473.144816515)scale(0.2 -0.2)">
     <use xlink:href="#BitstreamVeraSans-Roman-31"/>
     <use x="63.623046875" xlink:href="#BitstreamVeraSans-Roman-2e"/>
     <use x="95.41015625" xlink:href="#BitstreamVeraSans-Roman-35"/>
     <use x="159.033203125" xlink:href="#BitstreamVeraSans-Roman-31"/>
     <use x="222.65625" xlink:href="#BitstreamVeraSans-Roman-25"/>
    </g>
   </g>
   <g id="text_28">
    <!-- 0.81% -->
    <g transform="translate(1283.65737198 475.98602867)scale(0.2 -0.2)">
     <use xlink:href="#BitstreamVeraSans-Roman-30"/>
     <use x="63.623046875" xlink:href="#BitstreamVeraSans-Roman-2e"/>
     <use x="95.41015625" xlink:href="#BitstreamVeraSans-Roman-38"/>
     <use x="159.033203125" xlink:href="#BitstreamVeraSans-Roman-31"/>
     <use x="222.65625" xlink:href="#BitstreamVeraSans-Roman-25"/>
    </g>
   </g>
   <g id="text_29">
    <!-- 0.87% -->
    <g transform="translate(1444.79646008 475.727053385)scale(0.2 -0.2)">
     <use xlink:href="#BitstreamVeraSans-Roman-30"/>
     <use x="63.623046875" xlink:href="#BitstreamVeraSans-Roman-2e"/>
     <use x="95.41015625" xlink:href="#BitstreamVeraSans-Roman-38"/>
     <use x="159.033203125" xlink:href="#BitstreamVeraSans-Roman-37"/>
     <use x="222.65625" xlink:href="#BitstreamVeraSans-Roman-25"/>
    </g>
   </g>
   <g id="text_30">
    <!-- 0.60% -->
    <g transform="translate(1605.93554819 476.805899063)scale(0.2 -0.2)">
     <use xlink:href="#BitstreamVeraSans-Roman-30"/>
     <use x="63.623046875" xlink:href="#BitstreamVeraSans-Roman-2e"/>
     <use x="95.41015625" xlink:href="#BitstreamVeraSans-Roman-36"/>
     <use x="159.033203125" xlink:href="#BitstreamVeraSans-Roman-30"/>
     <use x="222.65625" xlink:href="#BitstreamVeraSans-Roman-25"/>
    </g>
   </g>
   <g id="text_31">
    <!-- 0.67% -->
    <g transform="translate(1767.07463629 476.549457868)scale(0.2 -0.2)">
     <use xlink:href="#BitstreamVeraSans-Roman-30"/>
     <use x="63.623046875" xlink:href="#BitstreamVeraSans-Roman-2e"/>
     <use x="95.41015625" xlink:href="#BitstreamVeraSans-Roman-36"/>
     <use x="159.033203125" xlink:href="#BitstreamVeraSans-Roman-37"/>
     <use x="222.65625" xlink:href="#BitstreamVeraSans-Roman-25"/>
    </g>
   </g>
   <g id="text_32">
    <!-- 19.12% -->
    <g transform="translate(1921.8512244 401.636034409)scale(0.2 -0.2)">
     <use xlink:href="#BitstreamVeraSans-Roman-31"/>
     <use x="63.623046875" xlink:href="#BitstreamVeraSans-Roman-39"/>
     <use x="127.24609375" xlink:href="#BitstreamVeraSans-Roman-2e"/>
     <use x="159.033203125" xlink:href="#BitstreamVeraSans-Roman-31"/>
     <use x="222.65625" xlink:href="#BitstreamVeraSans-Roman-32"/>
     <use x="286.279296875" xlink:href="#BitstreamVeraSans-Roman-25"/>
    </g>
   </g>
  </g>
 </g>
 <defs>
  <clipPath id="pb72040ad83">
   <rect height="446.570766681" width="1450.25179294" x="670.868207063" y="38.88"/>
  </clipPath>
  <clipPath id="p27bb49a6e9">
   <rect height="446.570766681" width="362.562948234" x="149.795" y="38.88"/>
  </clipPath>
 </defs>
</svg>
